%TF.GenerationSoftware,KiCad,Pcbnew,5.1.10-88a1d61d58~88~ubuntu18.04.1*%
%TF.CreationDate,2021-07-26T17:25:23+07:00*%
%TF.ProjectId,ADV728xM_EVAL_SMA-FFC_JETSON,41445637-3238-4784-9d5f-4556414c5f53,rev?*%
%TF.SameCoordinates,Original*%
%TF.FileFunction,Copper,L1,Top*%
%TF.FilePolarity,Positive*%
%FSLAX46Y46*%
G04 Gerber Fmt 4.6, Leading zero omitted, Abs format (unit mm)*
G04 Created by KiCad (PCBNEW 5.1.10-88a1d61d58~88~ubuntu18.04.1) date 2021-07-26 17:25:23*
%MOMM*%
%LPD*%
G01*
G04 APERTURE LIST*
%TA.AperFunction,ComponentPad*%
%ADD10O,1.700000X1.700000*%
%TD*%
%TA.AperFunction,ComponentPad*%
%ADD11R,1.700000X1.700000*%
%TD*%
%TA.AperFunction,SMDPad,CuDef*%
%ADD12R,2.286000X5.080000*%
%TD*%
%TA.AperFunction,SMDPad,CuDef*%
%ADD13R,2.413000X5.080000*%
%TD*%
%TA.AperFunction,SMDPad,CuDef*%
%ADD14R,0.610000X2.000000*%
%TD*%
%TA.AperFunction,SMDPad,CuDef*%
%ADD15R,2.680000X3.600000*%
%TD*%
%TA.AperFunction,SMDPad,CuDef*%
%ADD16R,1.358900X0.355600*%
%TD*%
%TA.AperFunction,ViaPad*%
%ADD17C,0.800000*%
%TD*%
%TA.AperFunction,Conductor*%
%ADD18C,0.300000*%
%TD*%
%TA.AperFunction,Conductor*%
%ADD19C,0.350000*%
%TD*%
%TA.AperFunction,Conductor*%
%ADD20C,0.250000*%
%TD*%
%TA.AperFunction,Conductor*%
%ADD21C,0.200000*%
%TD*%
%TA.AperFunction,Conductor*%
%ADD22C,0.254000*%
%TD*%
%TA.AperFunction,Conductor*%
%ADD23C,0.100000*%
%TD*%
G04 APERTURE END LIST*
D10*
%TO.P,J6,4*%
%TO.N,/GPIO1_1V8*%
X175552100Y-89496900D03*
%TO.P,J6,3*%
%TO.N,/GPIO0_1V8*%
X175552100Y-92036900D03*
%TO.P,J6,2*%
%TO.N,/I2C_SCL*%
X175552100Y-94576900D03*
D11*
%TO.P,J6,1*%
%TO.N,/I2C_SDA*%
X175552100Y-97116900D03*
%TD*%
D12*
%TO.P,J3,1*%
%TO.N,/CLK_P*%
X168846500Y-81368900D03*
D13*
%TO.P,J3,S2*%
%TO.N,GND*%
X173228000Y-81368900D03*
%TO.P,J3,S1*%
X164465000Y-81368900D03*
%TD*%
D12*
%TO.P,J4,1*%
%TO.N,/CLK_N*%
X182892700Y-81368900D03*
D13*
%TO.P,J4,S2*%
%TO.N,GND*%
X187274200Y-81368900D03*
%TO.P,J4,S1*%
X178511200Y-81368900D03*
%TD*%
D12*
%TO.P,J1,1*%
%TO.N,/D0_P*%
X140957300Y-81419700D03*
D13*
%TO.P,J1,S2*%
%TO.N,GND*%
X145338800Y-81419700D03*
%TO.P,J1,S1*%
X136575800Y-81419700D03*
%TD*%
D12*
%TO.P,J2,1*%
%TO.N,/D0_N*%
X154876500Y-81368900D03*
D13*
%TO.P,J2,S2*%
%TO.N,GND*%
X159258000Y-81368900D03*
%TO.P,J2,S1*%
X150495000Y-81368900D03*
%TD*%
%TO.P,C2,1*%
%TO.N,GND*%
%TA.AperFunction,SMDPad,CuDef*%
G36*
G01*
X152905000Y-101024700D02*
X152905000Y-100549700D01*
G75*
G02*
X153142500Y-100312200I237500J0D01*
G01*
X153742500Y-100312200D01*
G75*
G02*
X153980000Y-100549700I0J-237500D01*
G01*
X153980000Y-101024700D01*
G75*
G02*
X153742500Y-101262200I-237500J0D01*
G01*
X153142500Y-101262200D01*
G75*
G02*
X152905000Y-101024700I0J237500D01*
G01*
G37*
%TD.AperFunction*%
%TO.P,C2,2*%
%TO.N,+3V3*%
%TA.AperFunction,SMDPad,CuDef*%
G36*
G01*
X154630000Y-101024700D02*
X154630000Y-100549700D01*
G75*
G02*
X154867500Y-100312200I237500J0D01*
G01*
X155467500Y-100312200D01*
G75*
G02*
X155705000Y-100549700I0J-237500D01*
G01*
X155705000Y-101024700D01*
G75*
G02*
X155467500Y-101262200I-237500J0D01*
G01*
X154867500Y-101262200D01*
G75*
G02*
X154630000Y-101024700I0J237500D01*
G01*
G37*
%TD.AperFunction*%
%TD*%
%TO.P,C1,2*%
%TO.N,+1V8*%
%TA.AperFunction,SMDPad,CuDef*%
G36*
G01*
X154617300Y-102828100D02*
X154617300Y-102353100D01*
G75*
G02*
X154854800Y-102115600I237500J0D01*
G01*
X155454800Y-102115600D01*
G75*
G02*
X155692300Y-102353100I0J-237500D01*
G01*
X155692300Y-102828100D01*
G75*
G02*
X155454800Y-103065600I-237500J0D01*
G01*
X154854800Y-103065600D01*
G75*
G02*
X154617300Y-102828100I0J237500D01*
G01*
G37*
%TD.AperFunction*%
%TO.P,C1,1*%
%TO.N,GND*%
%TA.AperFunction,SMDPad,CuDef*%
G36*
G01*
X152892300Y-102828100D02*
X152892300Y-102353100D01*
G75*
G02*
X153129800Y-102115600I237500J0D01*
G01*
X153729800Y-102115600D01*
G75*
G02*
X153967300Y-102353100I0J-237500D01*
G01*
X153967300Y-102828100D01*
G75*
G02*
X153729800Y-103065600I-237500J0D01*
G01*
X153129800Y-103065600D01*
G75*
G02*
X152892300Y-102828100I0J237500D01*
G01*
G37*
%TD.AperFunction*%
%TD*%
D11*
%TO.P,J5,1*%
%TO.N,/I2C_SDA_3V3*%
X147980400Y-96850200D03*
D10*
%TO.P,J5,2*%
%TO.N,/I2C_SCL_3V3*%
X147980400Y-94310200D03*
%TO.P,J5,3*%
%TO.N,/GPIO0_3V3*%
X147980400Y-91770200D03*
%TO.P,J5,4*%
%TO.N,/GPIO1_3V3*%
X147980400Y-89230200D03*
%TD*%
D11*
%TO.P,J8,1*%
%TO.N,+1V8*%
X175590200Y-103289100D03*
D10*
%TO.P,J8,2*%
%TO.N,GND*%
X175590200Y-100749100D03*
%TD*%
%TO.P,J7,2*%
%TO.N,GND*%
X147929600Y-100558600D03*
D11*
%TO.P,J7,1*%
%TO.N,+3V3*%
X147929600Y-103098600D03*
%TD*%
%TO.P,R1,1*%
%TO.N,Net-(R1-Pad1)*%
%TA.AperFunction,SMDPad,CuDef*%
G36*
G01*
X168005200Y-102900901D02*
X168005200Y-102000899D01*
G75*
G02*
X168255199Y-101750900I249999J0D01*
G01*
X168955201Y-101750900D01*
G75*
G02*
X169205200Y-102000899I0J-249999D01*
G01*
X169205200Y-102900901D01*
G75*
G02*
X168955201Y-103150900I-249999J0D01*
G01*
X168255199Y-103150900D01*
G75*
G02*
X168005200Y-102900901I0J249999D01*
G01*
G37*
%TD.AperFunction*%
%TO.P,R1,2*%
%TO.N,+3V3*%
%TA.AperFunction,SMDPad,CuDef*%
G36*
G01*
X170005200Y-102900901D02*
X170005200Y-102000899D01*
G75*
G02*
X170255199Y-101750900I249999J0D01*
G01*
X170955201Y-101750900D01*
G75*
G02*
X171205200Y-102000899I0J-249999D01*
G01*
X171205200Y-102900901D01*
G75*
G02*
X170955201Y-103150900I-249999J0D01*
G01*
X170255199Y-103150900D01*
G75*
G02*
X170005200Y-102900901I0J249999D01*
G01*
G37*
%TD.AperFunction*%
%TD*%
D14*
%TO.P,U1,1*%
%TO.N,GND*%
X154594800Y-106578400D03*
%TO.P,U1,2*%
%TO.N,/D0_N*%
X155594800Y-106578400D03*
%TO.P,U1,3*%
%TO.N,/D0_P*%
X156594800Y-106578400D03*
%TO.P,U1,4*%
%TO.N,GND*%
X157594800Y-106578400D03*
%TO.P,U1,5*%
%TO.N,Net-(U1-Pad5)*%
X158594800Y-106578400D03*
%TO.P,U1,6*%
%TO.N,Net-(U1-Pad6)*%
X159594800Y-106578400D03*
%TO.P,U1,7*%
%TO.N,GND*%
X160594800Y-106578400D03*
%TO.P,U1,8*%
%TO.N,/CLK_N*%
X161594800Y-106578400D03*
%TO.P,U1,9*%
%TO.N,/CLK_P*%
X162594800Y-106578400D03*
%TO.P,U1,10*%
%TO.N,GND*%
X163594800Y-106578400D03*
%TO.P,U1,11*%
%TO.N,/GPIO1_1V8*%
X164594800Y-106578400D03*
%TO.P,U1,12*%
%TO.N,/GPIO0_1V8*%
X165594800Y-106578400D03*
%TO.P,U1,13*%
%TO.N,/I2C_SCL*%
X166594800Y-106578400D03*
%TO.P,U1,14*%
%TO.N,/I2C_SDA*%
X167594800Y-106578400D03*
%TO.P,U1,15*%
%TO.N,Net-(R1-Pad1)*%
X168594800Y-106578400D03*
D15*
%TO.P,U1,PAD*%
%TO.N,N/C*%
X151606000Y-109380900D03*
%TO.P,U1,PAD.*%
X171583900Y-109380400D03*
%TD*%
D16*
%TO.P,U2,14*%
%TO.N,+1V8*%
X159061150Y-98800199D03*
%TO.P,U2,13*%
%TO.N,+3V3*%
X159061150Y-98150200D03*
%TO.P,U2,12*%
%TO.N,/I2C_SDA_3V3*%
X159061150Y-97500199D03*
%TO.P,U2,11*%
%TO.N,/I2C_SCL_3V3*%
X159061150Y-96850200D03*
%TO.P,U2,10*%
%TO.N,/GPIO0_3V3*%
X159061150Y-96200199D03*
%TO.P,U2,9*%
%TO.N,Net-(U2-Pad9)*%
X159061150Y-95550200D03*
%TO.P,U2,8*%
%TO.N,/GPIO1_3V3*%
X159061150Y-94900199D03*
%TO.P,U2,7*%
%TO.N,GND*%
X164814250Y-94900201D03*
%TO.P,U2,6*%
%TO.N,Net-(U2-Pad6)*%
X164814250Y-95550200D03*
%TO.P,U2,5*%
%TO.N,/GPIO1_1V8*%
X164814250Y-96200201D03*
%TO.P,U2,4*%
%TO.N,/GPIO0_1V8*%
X164814250Y-96850200D03*
%TO.P,U2,3*%
%TO.N,/I2C_SCL*%
X164814250Y-97500199D03*
%TO.P,U2,2*%
%TO.N,/I2C_SDA*%
X164814250Y-98150200D03*
%TO.P,U2,1*%
%TO.N,+1V8*%
X164814250Y-98800201D03*
%TD*%
D17*
%TO.N,+3V3*%
X157302200Y-100787200D03*
X170599100Y-100787200D03*
%TO.N,+1V8*%
X164820600Y-101917500D03*
X158064200Y-101879400D03*
%TO.N,/D0_P*%
X140970000Y-81470500D03*
X156591000Y-110147000D03*
X140970000Y-82384900D03*
%TO.N,/D0_N*%
X154851100Y-81432400D03*
X155587700Y-109194500D03*
X154851100Y-82308700D03*
%TO.N,/CLK_P*%
X168833800Y-81368900D03*
X162598100Y-109194500D03*
X168833800Y-82245200D03*
%TO.N,/CLK_N*%
X182880000Y-81394300D03*
X161594800Y-110147000D03*
X182880000Y-82296000D03*
%TD*%
D18*
%TO.N,+3V3*%
X159061150Y-98150200D02*
X157564300Y-98150200D01*
X157302200Y-98412300D02*
X157564300Y-98150200D01*
X157302200Y-100787200D02*
X157302200Y-98412300D01*
D19*
X170592500Y-100793800D02*
X170599100Y-100787200D01*
X155167500Y-100787200D02*
X157302200Y-100787200D01*
D18*
X170605200Y-100793300D02*
X170599100Y-100787200D01*
D19*
X170605200Y-102450900D02*
X170605200Y-100793300D01*
D20*
%TO.N,GND*%
X163182300Y-85128100D02*
X161246391Y-87064009D01*
D19*
X175288700Y-100790500D02*
X175298100Y-100799900D01*
D20*
X164712650Y-94887501D02*
X169272499Y-94887501D01*
X169272499Y-94887501D02*
X172212000Y-91948000D01*
X180035200Y-94081600D02*
X180035200Y-103301800D01*
X177901600Y-91948000D02*
X180035200Y-94081600D01*
X163594800Y-106578400D02*
X163594800Y-105149400D01*
X163594800Y-105149400D02*
X162610800Y-104165400D01*
X160594800Y-105328400D02*
X160594800Y-106578400D01*
X161757800Y-104165400D02*
X160594800Y-105328400D01*
X162610800Y-104165400D02*
X161757800Y-104165400D01*
D19*
%TO.N,+1V8*%
X175285400Y-103327200D02*
X175298100Y-103339900D01*
D18*
X158210799Y-98787499D02*
X158959550Y-98787499D01*
X155155900Y-102591700D02*
X155154800Y-102590600D01*
D20*
X164814248Y-98800199D02*
X164814250Y-98800201D01*
X164814250Y-101911150D02*
X164820600Y-101917500D01*
X164814250Y-98800201D02*
X164814250Y-101911150D01*
D18*
X158064200Y-98934098D02*
X158210799Y-98787499D01*
X158064200Y-101879400D02*
X158064200Y-98934098D01*
X157353000Y-102590600D02*
X158064200Y-101879400D01*
X155154800Y-102590600D02*
X157353000Y-102590600D01*
D20*
%TO.N,/D0_P*%
X156594800Y-110143300D02*
X156591000Y-110147100D01*
D21*
X156594800Y-106578400D02*
X156594800Y-110143300D01*
D20*
%TO.N,/D0_N*%
X155594800Y-109187500D02*
X155587700Y-109194600D01*
D21*
X155594800Y-106578400D02*
X155594800Y-109187500D01*
D20*
%TO.N,/CLK_P*%
X162594800Y-109191200D02*
X162598100Y-109194500D01*
D21*
X162594800Y-106578400D02*
X162594800Y-109191200D01*
%TO.N,/CLK_N*%
X161594800Y-106578400D02*
X161594800Y-110147000D01*
D20*
%TO.N,/I2C_SCL_3V3*%
X157010100Y-96837500D02*
X151193500Y-96837500D01*
X157010100Y-96837500D02*
X156756100Y-96837500D01*
X158959550Y-96837500D02*
X157010100Y-96837500D01*
X148666200Y-94310200D02*
X147980400Y-94310200D01*
X151193500Y-96837500D02*
X148666200Y-94310200D01*
%TO.N,/I2C_SDA_3V3*%
X158959550Y-97487499D02*
X154251901Y-97487499D01*
X148691600Y-96875600D02*
X149923500Y-96875600D01*
X150535399Y-97487499D02*
X154251901Y-97487499D01*
X149923500Y-96875600D02*
X150535399Y-97487499D01*
%TO.N,/GPIO0_3V3*%
X152397699Y-96187499D02*
X147980400Y-91770200D01*
X158959550Y-96187499D02*
X152397699Y-96187499D01*
%TO.N,/GPIO1_3V3*%
X149809200Y-91059000D02*
X147980400Y-89230200D01*
X149809200Y-91960700D02*
X149809200Y-91059000D01*
X152735999Y-94887499D02*
X149809200Y-91960700D01*
X158959550Y-94887499D02*
X152735999Y-94887499D01*
%TO.N,Net-(R1-Pad1)*%
X168592500Y-106576100D02*
X168594800Y-106578400D01*
X168594800Y-102461300D02*
X168605200Y-102450900D01*
D19*
X168594800Y-106578400D02*
X168594800Y-102461300D01*
D18*
%TO.N,/I2C_SCL*%
X166594800Y-106578400D02*
X166594800Y-105545900D01*
D20*
X173098701Y-97500199D02*
X164814250Y-97500199D01*
X173964600Y-95313500D02*
X173964600Y-96634300D01*
X174701200Y-94576900D02*
X173964600Y-95313500D01*
X173964600Y-96634300D02*
X173098701Y-97500199D01*
X175552100Y-94576900D02*
X174701200Y-94576900D01*
X166594800Y-104250500D02*
X166594800Y-106578400D01*
X164814250Y-97500199D02*
X163497501Y-97500199D01*
X163144200Y-97853500D02*
X163144200Y-102120700D01*
X165582600Y-103238300D02*
X166594800Y-104250500D01*
X163497501Y-97500199D02*
X163144200Y-97853500D01*
X163144200Y-102120700D02*
X164261800Y-103238300D01*
X164261800Y-103238300D02*
X165582600Y-103238300D01*
%TO.N,/I2C_SDA*%
X175247300Y-96723200D02*
X175260000Y-96710500D01*
X164814250Y-98150200D02*
X166632100Y-98150200D01*
X174625000Y-97116900D02*
X173591700Y-98150200D01*
X175552100Y-97116900D02*
X174625000Y-97116900D01*
X166632100Y-98150200D02*
X173591700Y-98150200D01*
X163774600Y-98150200D02*
X164814250Y-98150200D01*
X163645850Y-98278950D02*
X163774600Y-98150200D01*
X167594800Y-104259900D02*
X167594800Y-106578400D01*
X165977401Y-102642501D02*
X167594800Y-104259900D01*
X164472599Y-102642501D02*
X165977401Y-102642501D01*
X163645850Y-101815752D02*
X164472599Y-102642501D01*
X163645850Y-98278950D02*
X163645850Y-101815752D01*
%TO.N,/GPIO1_1V8*%
X174307500Y-89496900D02*
X175552100Y-89496900D01*
X173951900Y-89852500D02*
X174307500Y-89496900D01*
X173951900Y-91313000D02*
X173951900Y-89852500D01*
X172138099Y-96187501D02*
X172389800Y-95935800D01*
X172389800Y-94424500D02*
X173177200Y-93637100D01*
X164712650Y-96187501D02*
X172138099Y-96187501D01*
X172389800Y-95935800D02*
X172389800Y-94424500D01*
X173177200Y-92087700D02*
X173951900Y-91313000D01*
X173177200Y-93637100D02*
X173177200Y-92087700D01*
X164594800Y-104295200D02*
X164594800Y-105273100D01*
X163830000Y-104254300D02*
X164553900Y-104254300D01*
X164594800Y-105273100D02*
X164594800Y-106578400D01*
X162994099Y-96200201D02*
X162179000Y-97015300D01*
X162179000Y-97015300D02*
X162179000Y-102603300D01*
X164814250Y-96200201D02*
X162994099Y-96200201D01*
X162179000Y-102603300D02*
X163830000Y-104254300D01*
X164553900Y-104254300D02*
X164594800Y-104295200D01*
%TO.N,/GPIO0_1V8*%
X164712650Y-96837500D02*
X172605700Y-96837500D01*
X172605700Y-96837500D02*
X173113700Y-96329500D01*
X173113700Y-96329500D02*
X173113700Y-94932500D01*
X173113700Y-94932500D02*
X173951900Y-94094300D01*
X173951900Y-94094300D02*
X173951900Y-92735400D01*
X174650400Y-92036900D02*
X175552100Y-92036900D01*
X173951900Y-92735400D02*
X174650400Y-92036900D01*
X165594800Y-104393500D02*
X165594800Y-106578400D01*
X165594800Y-104114100D02*
X165594800Y-104393500D01*
X164814250Y-96850200D02*
X163309300Y-96850200D01*
X163309300Y-96850200D02*
X162680650Y-97478850D01*
X162680650Y-97478850D02*
X162680650Y-102381050D01*
X162680650Y-102381050D02*
X164033200Y-103733600D01*
X164033200Y-103733600D02*
X165214300Y-103733600D01*
X165214300Y-103733600D02*
X165594800Y-104114100D01*
%TD*%
D22*
%TO.N,GND*%
X134731610Y-79159824D02*
X134734300Y-81133950D01*
X134893050Y-81292700D01*
X136448800Y-81292700D01*
X136448800Y-81272700D01*
X136702800Y-81272700D01*
X136702800Y-81292700D01*
X138258550Y-81292700D01*
X138417300Y-81133950D01*
X138419988Y-79161403D01*
X139176228Y-79161727D01*
X139176228Y-83959700D01*
X139188488Y-84084182D01*
X139224798Y-84203880D01*
X139283763Y-84314194D01*
X139363115Y-84410885D01*
X139459806Y-84490237D01*
X139570120Y-84549202D01*
X139689818Y-84585512D01*
X139814300Y-84597772D01*
X142100300Y-84597772D01*
X142224782Y-84585512D01*
X142344480Y-84549202D01*
X142454794Y-84490237D01*
X142551485Y-84410885D01*
X142630837Y-84314194D01*
X142689802Y-84203880D01*
X142726112Y-84084182D01*
X142738372Y-83959700D01*
X143494228Y-83959700D01*
X143506488Y-84084182D01*
X143542798Y-84203880D01*
X143601763Y-84314194D01*
X143681115Y-84410885D01*
X143777806Y-84490237D01*
X143888120Y-84549202D01*
X144007818Y-84585512D01*
X144132300Y-84597772D01*
X145053050Y-84594700D01*
X145211800Y-84435950D01*
X145211800Y-81546700D01*
X145465800Y-81546700D01*
X145465800Y-84435950D01*
X145624550Y-84594700D01*
X146545300Y-84597772D01*
X146669782Y-84585512D01*
X146789480Y-84549202D01*
X146899794Y-84490237D01*
X146996485Y-84410885D01*
X147075837Y-84314194D01*
X147134802Y-84203880D01*
X147171112Y-84084182D01*
X147183372Y-83959700D01*
X147183303Y-83908900D01*
X148650428Y-83908900D01*
X148662688Y-84033382D01*
X148698998Y-84153080D01*
X148757963Y-84263394D01*
X148837315Y-84360085D01*
X148934006Y-84439437D01*
X149044320Y-84498402D01*
X149164018Y-84534712D01*
X149288500Y-84546972D01*
X150209250Y-84543900D01*
X150368000Y-84385150D01*
X150368000Y-81495900D01*
X150622000Y-81495900D01*
X150622000Y-84385150D01*
X150780750Y-84543900D01*
X151701500Y-84546972D01*
X151825982Y-84534712D01*
X151945680Y-84498402D01*
X152055994Y-84439437D01*
X152152685Y-84360085D01*
X152232037Y-84263394D01*
X152291002Y-84153080D01*
X152327312Y-84033382D01*
X152339572Y-83908900D01*
X152336500Y-81654650D01*
X152177750Y-81495900D01*
X150622000Y-81495900D01*
X150368000Y-81495900D01*
X148812250Y-81495900D01*
X148653500Y-81654650D01*
X148650428Y-83908900D01*
X147183303Y-83908900D01*
X147180300Y-81705450D01*
X147021550Y-81546700D01*
X145465800Y-81546700D01*
X145211800Y-81546700D01*
X143656050Y-81546700D01*
X143497300Y-81705450D01*
X143494228Y-83959700D01*
X142738372Y-83959700D01*
X142738372Y-79163252D01*
X143494615Y-79163575D01*
X143497300Y-81133950D01*
X143656050Y-81292700D01*
X145211800Y-81292700D01*
X145211800Y-81272700D01*
X145465800Y-81272700D01*
X145465800Y-81292700D01*
X147021550Y-81292700D01*
X147180300Y-81133950D01*
X147182983Y-79165154D01*
X148650887Y-79165783D01*
X148653500Y-81083150D01*
X148812250Y-81241900D01*
X150368000Y-81241900D01*
X150368000Y-81221900D01*
X150622000Y-81221900D01*
X150622000Y-81241900D01*
X152177750Y-81241900D01*
X152336500Y-81083150D01*
X152339111Y-79167361D01*
X153095428Y-79167685D01*
X153095428Y-83908900D01*
X153107688Y-84033382D01*
X153143998Y-84153080D01*
X153202963Y-84263394D01*
X153282315Y-84360085D01*
X153379006Y-84439437D01*
X153489320Y-84498402D01*
X153609018Y-84534712D01*
X153733500Y-84546972D01*
X156019500Y-84546972D01*
X156143982Y-84534712D01*
X156263680Y-84498402D01*
X156373994Y-84439437D01*
X156470685Y-84360085D01*
X156550037Y-84263394D01*
X156609002Y-84153080D01*
X156645312Y-84033382D01*
X156657572Y-83908900D01*
X157413428Y-83908900D01*
X157425688Y-84033382D01*
X157461998Y-84153080D01*
X157520963Y-84263394D01*
X157600315Y-84360085D01*
X157697006Y-84439437D01*
X157807320Y-84498402D01*
X157927018Y-84534712D01*
X158051500Y-84546972D01*
X158972250Y-84543900D01*
X159131000Y-84385150D01*
X159131000Y-81495900D01*
X159385000Y-81495900D01*
X159385000Y-84385150D01*
X159543750Y-84543900D01*
X160464500Y-84546972D01*
X160588982Y-84534712D01*
X160708680Y-84498402D01*
X160818994Y-84439437D01*
X160915685Y-84360085D01*
X160995037Y-84263394D01*
X161054002Y-84153080D01*
X161090312Y-84033382D01*
X161102572Y-83908900D01*
X162620428Y-83908900D01*
X162632688Y-84033382D01*
X162668998Y-84153080D01*
X162727963Y-84263394D01*
X162807315Y-84360085D01*
X162904006Y-84439437D01*
X163014320Y-84498402D01*
X163134018Y-84534712D01*
X163258500Y-84546972D01*
X164179250Y-84543900D01*
X164338000Y-84385150D01*
X164338000Y-81495900D01*
X164592000Y-81495900D01*
X164592000Y-84385150D01*
X164750750Y-84543900D01*
X165671500Y-84546972D01*
X165795982Y-84534712D01*
X165915680Y-84498402D01*
X166025994Y-84439437D01*
X166122685Y-84360085D01*
X166202037Y-84263394D01*
X166261002Y-84153080D01*
X166297312Y-84033382D01*
X166309572Y-83908900D01*
X166306500Y-81654650D01*
X166147750Y-81495900D01*
X164592000Y-81495900D01*
X164338000Y-81495900D01*
X162782250Y-81495900D01*
X162623500Y-81654650D01*
X162620428Y-83908900D01*
X161102572Y-83908900D01*
X161099500Y-81654650D01*
X160940750Y-81495900D01*
X159385000Y-81495900D01*
X159131000Y-81495900D01*
X157575250Y-81495900D01*
X157416500Y-81654650D01*
X157413428Y-83908900D01*
X156657572Y-83908900D01*
X156657572Y-79169210D01*
X157413892Y-79169534D01*
X157416500Y-81083150D01*
X157575250Y-81241900D01*
X159131000Y-81241900D01*
X159131000Y-81221900D01*
X159385000Y-81221900D01*
X159385000Y-81241900D01*
X160940750Y-81241900D01*
X161099500Y-81083150D01*
X161102106Y-79171113D01*
X162620895Y-79171763D01*
X162623500Y-81083150D01*
X162782250Y-81241900D01*
X164338000Y-81241900D01*
X164338000Y-81221900D01*
X164592000Y-81221900D01*
X164592000Y-81241900D01*
X166147750Y-81241900D01*
X166306500Y-81083150D01*
X166309103Y-79173342D01*
X167065428Y-79173665D01*
X167065428Y-83908900D01*
X167077688Y-84033382D01*
X167113998Y-84153080D01*
X167172963Y-84263394D01*
X167252315Y-84360085D01*
X167349006Y-84439437D01*
X167459320Y-84498402D01*
X167579018Y-84534712D01*
X167703500Y-84546972D01*
X169989500Y-84546972D01*
X170113982Y-84534712D01*
X170233680Y-84498402D01*
X170343994Y-84439437D01*
X170440685Y-84360085D01*
X170520037Y-84263394D01*
X170579002Y-84153080D01*
X170615312Y-84033382D01*
X170627572Y-83908900D01*
X171383428Y-83908900D01*
X171395688Y-84033382D01*
X171431998Y-84153080D01*
X171490963Y-84263394D01*
X171570315Y-84360085D01*
X171667006Y-84439437D01*
X171777320Y-84498402D01*
X171897018Y-84534712D01*
X172021500Y-84546972D01*
X172942250Y-84543900D01*
X173101000Y-84385150D01*
X173101000Y-81495900D01*
X173355000Y-81495900D01*
X173355000Y-84385150D01*
X173513750Y-84543900D01*
X174434500Y-84546972D01*
X174558982Y-84534712D01*
X174678680Y-84498402D01*
X174788994Y-84439437D01*
X174885685Y-84360085D01*
X174965037Y-84263394D01*
X175024002Y-84153080D01*
X175060312Y-84033382D01*
X175072572Y-83908900D01*
X176666628Y-83908900D01*
X176678888Y-84033382D01*
X176715198Y-84153080D01*
X176774163Y-84263394D01*
X176853515Y-84360085D01*
X176950206Y-84439437D01*
X177060520Y-84498402D01*
X177180218Y-84534712D01*
X177304700Y-84546972D01*
X178225450Y-84543900D01*
X178384200Y-84385150D01*
X178384200Y-81495900D01*
X178638200Y-81495900D01*
X178638200Y-84385150D01*
X178796950Y-84543900D01*
X179717700Y-84546972D01*
X179842182Y-84534712D01*
X179961880Y-84498402D01*
X180072194Y-84439437D01*
X180168885Y-84360085D01*
X180248237Y-84263394D01*
X180307202Y-84153080D01*
X180343512Y-84033382D01*
X180355772Y-83908900D01*
X180352700Y-81654650D01*
X180193950Y-81495900D01*
X178638200Y-81495900D01*
X178384200Y-81495900D01*
X176828450Y-81495900D01*
X176669700Y-81654650D01*
X176666628Y-83908900D01*
X175072572Y-83908900D01*
X175069500Y-81654650D01*
X174910750Y-81495900D01*
X173355000Y-81495900D01*
X173101000Y-81495900D01*
X171545250Y-81495900D01*
X171386500Y-81654650D01*
X171383428Y-83908900D01*
X170627572Y-83908900D01*
X170627572Y-79175190D01*
X171383900Y-79175514D01*
X171386500Y-81083150D01*
X171545250Y-81241900D01*
X173101000Y-81241900D01*
X173101000Y-81221900D01*
X173355000Y-81221900D01*
X173355000Y-81241900D01*
X174910750Y-81241900D01*
X175069500Y-81083150D01*
X175072097Y-79177093D01*
X176667103Y-79177776D01*
X176669700Y-81083150D01*
X176828450Y-81241900D01*
X178384200Y-81241900D01*
X178384200Y-81221900D01*
X178638200Y-81221900D01*
X178638200Y-81241900D01*
X180193950Y-81241900D01*
X180352700Y-81083150D01*
X180355294Y-79179354D01*
X181111628Y-79179678D01*
X181111628Y-83908900D01*
X181123888Y-84033382D01*
X181160198Y-84153080D01*
X181219163Y-84263394D01*
X181298515Y-84360085D01*
X181395206Y-84439437D01*
X181505520Y-84498402D01*
X181625218Y-84534712D01*
X181749700Y-84546972D01*
X184035700Y-84546972D01*
X184160182Y-84534712D01*
X184279880Y-84498402D01*
X184390194Y-84439437D01*
X184486885Y-84360085D01*
X184566237Y-84263394D01*
X184625202Y-84153080D01*
X184661512Y-84033382D01*
X184673772Y-83908900D01*
X185429628Y-83908900D01*
X185441888Y-84033382D01*
X185478198Y-84153080D01*
X185537163Y-84263394D01*
X185616515Y-84360085D01*
X185713206Y-84439437D01*
X185823520Y-84498402D01*
X185943218Y-84534712D01*
X186067700Y-84546972D01*
X186988450Y-84543900D01*
X187147200Y-84385150D01*
X187147200Y-81495900D01*
X187401200Y-81495900D01*
X187401200Y-84385150D01*
X187559950Y-84543900D01*
X188480700Y-84546972D01*
X188605182Y-84534712D01*
X188724880Y-84498402D01*
X188835194Y-84439437D01*
X188931885Y-84360085D01*
X189011237Y-84263394D01*
X189070202Y-84153080D01*
X189106512Y-84033382D01*
X189118772Y-83908900D01*
X189115700Y-81654650D01*
X188956950Y-81495900D01*
X187401200Y-81495900D01*
X187147200Y-81495900D01*
X185591450Y-81495900D01*
X185432700Y-81654650D01*
X185429628Y-83908900D01*
X184673772Y-83908900D01*
X184673772Y-79181203D01*
X185430109Y-79181527D01*
X185432700Y-81083150D01*
X185591450Y-81241900D01*
X187147200Y-81241900D01*
X187147200Y-81221900D01*
X187401200Y-81221900D01*
X187401200Y-81241900D01*
X188956950Y-81241900D01*
X189115700Y-81083150D01*
X189118289Y-79183105D01*
X190780050Y-79183817D01*
X190792251Y-111367547D01*
X173523977Y-111389719D01*
X173549712Y-111304882D01*
X173561972Y-111180400D01*
X173561972Y-107580400D01*
X173549712Y-107455918D01*
X173513402Y-107336220D01*
X173454437Y-107225906D01*
X173375085Y-107129215D01*
X173278394Y-107049863D01*
X173168080Y-106990898D01*
X173048382Y-106954588D01*
X172923900Y-106942328D01*
X170243900Y-106942328D01*
X170119418Y-106954588D01*
X169999720Y-106990898D01*
X169889406Y-107049863D01*
X169792715Y-107129215D01*
X169713363Y-107225906D01*
X169654398Y-107336220D01*
X169618088Y-107455918D01*
X169605828Y-107580400D01*
X169605828Y-111180400D01*
X169618088Y-111304882D01*
X169645334Y-111394700D01*
X153538444Y-111415381D01*
X153571812Y-111305382D01*
X153584072Y-111180900D01*
X153584072Y-109092561D01*
X154552700Y-109092561D01*
X154552700Y-109296439D01*
X154592474Y-109496398D01*
X154670495Y-109684756D01*
X154783763Y-109854274D01*
X154927926Y-109998437D01*
X155097444Y-110111705D01*
X155285802Y-110189726D01*
X155485761Y-110229500D01*
X155556000Y-110229500D01*
X155556000Y-110248939D01*
X155595774Y-110448898D01*
X155673795Y-110637256D01*
X155787063Y-110806774D01*
X155931226Y-110950937D01*
X156100744Y-111064205D01*
X156289102Y-111142226D01*
X156489061Y-111182000D01*
X156692939Y-111182000D01*
X156892898Y-111142226D01*
X157081256Y-111064205D01*
X157250774Y-110950937D01*
X157394937Y-110806774D01*
X157508205Y-110637256D01*
X157586226Y-110448898D01*
X157626000Y-110248939D01*
X157626000Y-110045061D01*
X160559800Y-110045061D01*
X160559800Y-110248939D01*
X160599574Y-110448898D01*
X160677595Y-110637256D01*
X160790863Y-110806774D01*
X160935026Y-110950937D01*
X161104544Y-111064205D01*
X161292902Y-111142226D01*
X161492861Y-111182000D01*
X161696739Y-111182000D01*
X161896698Y-111142226D01*
X162085056Y-111064205D01*
X162254574Y-110950937D01*
X162398737Y-110806774D01*
X162512005Y-110637256D01*
X162590026Y-110448898D01*
X162629800Y-110248939D01*
X162629800Y-110229500D01*
X162700039Y-110229500D01*
X162899998Y-110189726D01*
X163088356Y-110111705D01*
X163257874Y-109998437D01*
X163402037Y-109854274D01*
X163515305Y-109684756D01*
X163593326Y-109496398D01*
X163633100Y-109296439D01*
X163633100Y-109092561D01*
X163593326Y-108892602D01*
X163515305Y-108704244D01*
X163402037Y-108534726D01*
X163329800Y-108462489D01*
X163329800Y-108192650D01*
X163467800Y-108054650D01*
X163467800Y-107862807D01*
X163489302Y-107822580D01*
X163525612Y-107702882D01*
X163537872Y-107578400D01*
X163537872Y-106431400D01*
X163651728Y-106431400D01*
X163651728Y-107578400D01*
X163663988Y-107702882D01*
X163700298Y-107822580D01*
X163721800Y-107862807D01*
X163721800Y-108054650D01*
X163880550Y-108213400D01*
X163899800Y-108216472D01*
X164024282Y-108204212D01*
X164094800Y-108182821D01*
X164165318Y-108204212D01*
X164289800Y-108216472D01*
X164899800Y-108216472D01*
X165024282Y-108204212D01*
X165094800Y-108182821D01*
X165165318Y-108204212D01*
X165289800Y-108216472D01*
X165899800Y-108216472D01*
X166024282Y-108204212D01*
X166094800Y-108182821D01*
X166165318Y-108204212D01*
X166289800Y-108216472D01*
X166899800Y-108216472D01*
X167024282Y-108204212D01*
X167094800Y-108182821D01*
X167165318Y-108204212D01*
X167289800Y-108216472D01*
X167899800Y-108216472D01*
X168024282Y-108204212D01*
X168094800Y-108182821D01*
X168165318Y-108204212D01*
X168289800Y-108216472D01*
X168899800Y-108216472D01*
X169024282Y-108204212D01*
X169143980Y-108167902D01*
X169254294Y-108108937D01*
X169350985Y-108029585D01*
X169430337Y-107932894D01*
X169489302Y-107822580D01*
X169525612Y-107702882D01*
X169537872Y-107578400D01*
X169537872Y-105578400D01*
X169525612Y-105453918D01*
X169489302Y-105334220D01*
X169430337Y-105223906D01*
X169404800Y-105192789D01*
X169404800Y-103662710D01*
X169448587Y-103639305D01*
X169583162Y-103528862D01*
X169605200Y-103502009D01*
X169627238Y-103528862D01*
X169761813Y-103639305D01*
X169915349Y-103721372D01*
X170081945Y-103771908D01*
X170255199Y-103788972D01*
X170955201Y-103788972D01*
X171128455Y-103771908D01*
X171295051Y-103721372D01*
X171448587Y-103639305D01*
X171583162Y-103528862D01*
X171693605Y-103394287D01*
X171775672Y-103240751D01*
X171826208Y-103074155D01*
X171843272Y-102900901D01*
X171843272Y-102439100D01*
X174102128Y-102439100D01*
X174102128Y-104139100D01*
X174114388Y-104263582D01*
X174150698Y-104383280D01*
X174209663Y-104493594D01*
X174289015Y-104590285D01*
X174385706Y-104669637D01*
X174496020Y-104728602D01*
X174615718Y-104764912D01*
X174740200Y-104777172D01*
X176440200Y-104777172D01*
X176564682Y-104764912D01*
X176684380Y-104728602D01*
X176794694Y-104669637D01*
X176891385Y-104590285D01*
X176970737Y-104493594D01*
X177029702Y-104383280D01*
X177066012Y-104263582D01*
X177078272Y-104139100D01*
X177078272Y-102439100D01*
X177066012Y-102314618D01*
X177029702Y-102194920D01*
X176970737Y-102084606D01*
X176891385Y-101987915D01*
X176794694Y-101908563D01*
X176684380Y-101849598D01*
X176603734Y-101825134D01*
X176687788Y-101749369D01*
X176861841Y-101516020D01*
X176987025Y-101253199D01*
X177031676Y-101105990D01*
X176910355Y-100876100D01*
X175717200Y-100876100D01*
X175717200Y-100896100D01*
X175463200Y-100896100D01*
X175463200Y-100876100D01*
X174270045Y-100876100D01*
X174148724Y-101105990D01*
X174193375Y-101253199D01*
X174318559Y-101516020D01*
X174492612Y-101749369D01*
X174576666Y-101825134D01*
X174496020Y-101849598D01*
X174385706Y-101908563D01*
X174289015Y-101987915D01*
X174209663Y-102084606D01*
X174150698Y-102194920D01*
X174114388Y-102314618D01*
X174102128Y-102439100D01*
X171843272Y-102439100D01*
X171843272Y-102000899D01*
X171826208Y-101827645D01*
X171775672Y-101661049D01*
X171693605Y-101507513D01*
X171583162Y-101372938D01*
X171498779Y-101303686D01*
X171516305Y-101277456D01*
X171594326Y-101089098D01*
X171634100Y-100889139D01*
X171634100Y-100685261D01*
X171594326Y-100485302D01*
X171555766Y-100392210D01*
X174148724Y-100392210D01*
X174270045Y-100622100D01*
X175463200Y-100622100D01*
X175463200Y-99428286D01*
X175717200Y-99428286D01*
X175717200Y-100622100D01*
X176910355Y-100622100D01*
X177031676Y-100392210D01*
X176987025Y-100245001D01*
X176861841Y-99982180D01*
X176687788Y-99748831D01*
X176471555Y-99553922D01*
X176221452Y-99404943D01*
X175947091Y-99307619D01*
X175717200Y-99428286D01*
X175463200Y-99428286D01*
X175233309Y-99307619D01*
X174958948Y-99404943D01*
X174708845Y-99553922D01*
X174492612Y-99748831D01*
X174318559Y-99982180D01*
X174193375Y-100245001D01*
X174148724Y-100392210D01*
X171555766Y-100392210D01*
X171516305Y-100296944D01*
X171403037Y-100127426D01*
X171258874Y-99983263D01*
X171089356Y-99869995D01*
X170900998Y-99791974D01*
X170701039Y-99752200D01*
X170497161Y-99752200D01*
X170297202Y-99791974D01*
X170108844Y-99869995D01*
X169939326Y-99983263D01*
X169795163Y-100127426D01*
X169681895Y-100296944D01*
X169603874Y-100485302D01*
X169564100Y-100685261D01*
X169564100Y-100889139D01*
X169603874Y-101089098D01*
X169681895Y-101277456D01*
X169703742Y-101310153D01*
X169627238Y-101372938D01*
X169605200Y-101399791D01*
X169583162Y-101372938D01*
X169448587Y-101262495D01*
X169295051Y-101180428D01*
X169128455Y-101129892D01*
X168955201Y-101112828D01*
X168255199Y-101112828D01*
X168081945Y-101129892D01*
X167915349Y-101180428D01*
X167761813Y-101262495D01*
X167627238Y-101372938D01*
X167516795Y-101507513D01*
X167434728Y-101661049D01*
X167384192Y-101827645D01*
X167367128Y-102000899D01*
X167367128Y-102900901D01*
X167373303Y-102963602D01*
X166541205Y-102131504D01*
X166517402Y-102102500D01*
X166401677Y-102007527D01*
X166269648Y-101936955D01*
X166126387Y-101893498D01*
X166014734Y-101882501D01*
X166014723Y-101882501D01*
X165977401Y-101878825D01*
X165940079Y-101882501D01*
X165855600Y-101882501D01*
X165855600Y-101815561D01*
X165815826Y-101615602D01*
X165737805Y-101427244D01*
X165624537Y-101257726D01*
X165574250Y-101207439D01*
X165574250Y-99608140D01*
X165618182Y-99603813D01*
X165737880Y-99567503D01*
X165848194Y-99508538D01*
X165944885Y-99429186D01*
X166024237Y-99332495D01*
X166083202Y-99222181D01*
X166119512Y-99102483D01*
X166131772Y-98978001D01*
X166131772Y-98910200D01*
X173554378Y-98910200D01*
X173591700Y-98913876D01*
X173629022Y-98910200D01*
X173629033Y-98910200D01*
X173740686Y-98899203D01*
X173883947Y-98855746D01*
X174015976Y-98785174D01*
X174131701Y-98690201D01*
X174155504Y-98661198D01*
X174332039Y-98484662D01*
X174347606Y-98497437D01*
X174457920Y-98556402D01*
X174577618Y-98592712D01*
X174702100Y-98604972D01*
X176402100Y-98604972D01*
X176526582Y-98592712D01*
X176646280Y-98556402D01*
X176756594Y-98497437D01*
X176853285Y-98418085D01*
X176932637Y-98321394D01*
X176991602Y-98211080D01*
X177027912Y-98091382D01*
X177040172Y-97966900D01*
X177040172Y-96266900D01*
X177027912Y-96142418D01*
X176991602Y-96022720D01*
X176932637Y-95912406D01*
X176853285Y-95815715D01*
X176756594Y-95736363D01*
X176646280Y-95677398D01*
X176573720Y-95655387D01*
X176705575Y-95523532D01*
X176868090Y-95280311D01*
X176980032Y-95010058D01*
X177037100Y-94723160D01*
X177037100Y-94430640D01*
X176980032Y-94143742D01*
X176868090Y-93873489D01*
X176705575Y-93630268D01*
X176498732Y-93423425D01*
X176324340Y-93306900D01*
X176498732Y-93190375D01*
X176705575Y-92983532D01*
X176868090Y-92740311D01*
X176980032Y-92470058D01*
X177037100Y-92183160D01*
X177037100Y-91890640D01*
X176980032Y-91603742D01*
X176868090Y-91333489D01*
X176705575Y-91090268D01*
X176498732Y-90883425D01*
X176324340Y-90766900D01*
X176498732Y-90650375D01*
X176705575Y-90443532D01*
X176868090Y-90200311D01*
X176980032Y-89930058D01*
X177037100Y-89643160D01*
X177037100Y-89350640D01*
X176980032Y-89063742D01*
X176868090Y-88793489D01*
X176705575Y-88550268D01*
X176498732Y-88343425D01*
X176255511Y-88180910D01*
X175985258Y-88068968D01*
X175698360Y-88011900D01*
X175405840Y-88011900D01*
X175118942Y-88068968D01*
X174848689Y-88180910D01*
X174605468Y-88343425D01*
X174398625Y-88550268D01*
X174274185Y-88736505D01*
X174270176Y-88736900D01*
X174270167Y-88736900D01*
X174158514Y-88747897D01*
X174015253Y-88791354D01*
X173883224Y-88861926D01*
X173767499Y-88956899D01*
X173743696Y-88985903D01*
X173440898Y-89288701D01*
X173411900Y-89312499D01*
X173388102Y-89341497D01*
X173388101Y-89341498D01*
X173316926Y-89428224D01*
X173246354Y-89560254D01*
X173202898Y-89703515D01*
X173188224Y-89852500D01*
X173191901Y-89889832D01*
X173191900Y-90998198D01*
X172666198Y-91523901D01*
X172637200Y-91547699D01*
X172613402Y-91576697D01*
X172613401Y-91576698D01*
X172542226Y-91663424D01*
X172471654Y-91795454D01*
X172428198Y-91938715D01*
X172413524Y-92087700D01*
X172417201Y-92125032D01*
X172417200Y-93322298D01*
X171878798Y-93860701D01*
X171849800Y-93884499D01*
X171826002Y-93913497D01*
X171826001Y-93913498D01*
X171754826Y-94000224D01*
X171684254Y-94132254D01*
X171667864Y-94186287D01*
X171641842Y-94272074D01*
X171640798Y-94275515D01*
X171626124Y-94424500D01*
X171629801Y-94461832D01*
X171629800Y-95427501D01*
X166131772Y-95427501D01*
X166131772Y-95372400D01*
X166119512Y-95247918D01*
X166112977Y-95226374D01*
X166117450Y-95212431D01*
X166128700Y-95109751D01*
X165969950Y-94951001D01*
X165969330Y-94951001D01*
X165944885Y-94921215D01*
X165857379Y-94849401D01*
X165969950Y-94849401D01*
X166128700Y-94690651D01*
X166117450Y-94587971D01*
X166079239Y-94468867D01*
X166018526Y-94359505D01*
X165937644Y-94264090D01*
X165839702Y-94186287D01*
X165728463Y-94129086D01*
X165608202Y-94094687D01*
X165483541Y-94084410D01*
X165100000Y-94087401D01*
X164941250Y-94246151D01*
X164941250Y-94734328D01*
X164687250Y-94734328D01*
X164687250Y-94246151D01*
X164528500Y-94087401D01*
X164144959Y-94084410D01*
X164020298Y-94094687D01*
X163900037Y-94129086D01*
X163788798Y-94186287D01*
X163690856Y-94264090D01*
X163609974Y-94359505D01*
X163549261Y-94468867D01*
X163511050Y-94587971D01*
X163499800Y-94690651D01*
X163658550Y-94849401D01*
X163771121Y-94849401D01*
X163683615Y-94921215D01*
X163659170Y-94951001D01*
X163658550Y-94951001D01*
X163499800Y-95109751D01*
X163511050Y-95212431D01*
X163515523Y-95226374D01*
X163508988Y-95247918D01*
X163496728Y-95372400D01*
X163496728Y-95440201D01*
X163031421Y-95440201D01*
X162994098Y-95436525D01*
X162956775Y-95440201D01*
X162956766Y-95440201D01*
X162845113Y-95451198D01*
X162711053Y-95491864D01*
X162701852Y-95494655D01*
X162569822Y-95565227D01*
X162498263Y-95623955D01*
X162454098Y-95660200D01*
X162430300Y-95689199D01*
X161668002Y-96451497D01*
X161638999Y-96475299D01*
X161583871Y-96542474D01*
X161544026Y-96591024D01*
X161494154Y-96684327D01*
X161473454Y-96723054D01*
X161429997Y-96866315D01*
X161419000Y-96977968D01*
X161419000Y-96977978D01*
X161415324Y-97015300D01*
X161419000Y-97052623D01*
X161419001Y-102565968D01*
X161415324Y-102603300D01*
X161419001Y-102640633D01*
X161429998Y-102752286D01*
X161431026Y-102755674D01*
X161473454Y-102895546D01*
X161544026Y-103027576D01*
X161600406Y-103096274D01*
X161639000Y-103143301D01*
X161667998Y-103167099D01*
X163266200Y-104765302D01*
X163289999Y-104794301D01*
X163318997Y-104818099D01*
X163405724Y-104889274D01*
X163506985Y-104943400D01*
X163467798Y-104943400D01*
X163467798Y-105102148D01*
X163309050Y-104943400D01*
X163289800Y-104940328D01*
X163165318Y-104952588D01*
X163094800Y-104973979D01*
X163024282Y-104952588D01*
X162899800Y-104940328D01*
X162289800Y-104940328D01*
X162165318Y-104952588D01*
X162094800Y-104973979D01*
X162024282Y-104952588D01*
X161899800Y-104940328D01*
X161289800Y-104940328D01*
X161165318Y-104952588D01*
X161094800Y-104973979D01*
X161024282Y-104952588D01*
X160899800Y-104940328D01*
X160880550Y-104943400D01*
X160721800Y-105102150D01*
X160721800Y-105293993D01*
X160700298Y-105334220D01*
X160663988Y-105453918D01*
X160651728Y-105578400D01*
X160651728Y-107578400D01*
X160663988Y-107702882D01*
X160700298Y-107822580D01*
X160721800Y-107862807D01*
X160721800Y-108054650D01*
X160859800Y-108192650D01*
X160859801Y-109418288D01*
X160790863Y-109487226D01*
X160677595Y-109656744D01*
X160599574Y-109845102D01*
X160559800Y-110045061D01*
X157626000Y-110045061D01*
X157586226Y-109845102D01*
X157508205Y-109656744D01*
X157394937Y-109487226D01*
X157329800Y-109422089D01*
X157329800Y-108192650D01*
X157467800Y-108054650D01*
X157467800Y-107862807D01*
X157489302Y-107822580D01*
X157525612Y-107702882D01*
X157537872Y-107578400D01*
X157537872Y-105578400D01*
X157651728Y-105578400D01*
X157651728Y-107578400D01*
X157663988Y-107702882D01*
X157700298Y-107822580D01*
X157721800Y-107862807D01*
X157721800Y-108054650D01*
X157880550Y-108213400D01*
X157899800Y-108216472D01*
X158024282Y-108204212D01*
X158094800Y-108182821D01*
X158165318Y-108204212D01*
X158289800Y-108216472D01*
X158899800Y-108216472D01*
X159024282Y-108204212D01*
X159094800Y-108182821D01*
X159165318Y-108204212D01*
X159289800Y-108216472D01*
X159899800Y-108216472D01*
X160024282Y-108204212D01*
X160094800Y-108182821D01*
X160165318Y-108204212D01*
X160289800Y-108216472D01*
X160309050Y-108213400D01*
X160467800Y-108054650D01*
X160467800Y-107862807D01*
X160489302Y-107822580D01*
X160525612Y-107702882D01*
X160537872Y-107578400D01*
X160537872Y-105578400D01*
X160525612Y-105453918D01*
X160489302Y-105334220D01*
X160467800Y-105293993D01*
X160467800Y-105102150D01*
X160309050Y-104943400D01*
X160289800Y-104940328D01*
X160165318Y-104952588D01*
X160094800Y-104973979D01*
X160024282Y-104952588D01*
X159899800Y-104940328D01*
X159289800Y-104940328D01*
X159165318Y-104952588D01*
X159094800Y-104973979D01*
X159024282Y-104952588D01*
X158899800Y-104940328D01*
X158289800Y-104940328D01*
X158165318Y-104952588D01*
X158094800Y-104973979D01*
X158024282Y-104952588D01*
X157899800Y-104940328D01*
X157880550Y-104943400D01*
X157721800Y-105102150D01*
X157721800Y-105293993D01*
X157700298Y-105334220D01*
X157663988Y-105453918D01*
X157651728Y-105578400D01*
X157537872Y-105578400D01*
X157525612Y-105453918D01*
X157489302Y-105334220D01*
X157467800Y-105293993D01*
X157467800Y-105102150D01*
X157309050Y-104943400D01*
X157289800Y-104940328D01*
X157165318Y-104952588D01*
X157094800Y-104973979D01*
X157024282Y-104952588D01*
X156899800Y-104940328D01*
X156289800Y-104940328D01*
X156165318Y-104952588D01*
X156094800Y-104973979D01*
X156024282Y-104952588D01*
X155899800Y-104940328D01*
X155289800Y-104940328D01*
X155165318Y-104952588D01*
X155094800Y-104973979D01*
X155024282Y-104952588D01*
X154899800Y-104940328D01*
X154880550Y-104943400D01*
X154721800Y-105102150D01*
X154721800Y-105293993D01*
X154700298Y-105334220D01*
X154663988Y-105453918D01*
X154651728Y-105578400D01*
X154651728Y-107578400D01*
X154663988Y-107702882D01*
X154700298Y-107822580D01*
X154721800Y-107862807D01*
X154721800Y-108054650D01*
X154859801Y-108192651D01*
X154859801Y-108458688D01*
X154783763Y-108534726D01*
X154670495Y-108704244D01*
X154592474Y-108892602D01*
X154552700Y-109092561D01*
X153584072Y-109092561D01*
X153584072Y-107580900D01*
X153583826Y-107578400D01*
X153651728Y-107578400D01*
X153663988Y-107702882D01*
X153700298Y-107822580D01*
X153759263Y-107932894D01*
X153838615Y-108029585D01*
X153935306Y-108108937D01*
X154045620Y-108167902D01*
X154165318Y-108204212D01*
X154289800Y-108216472D01*
X154309050Y-108213400D01*
X154467800Y-108054650D01*
X154467800Y-106705400D01*
X153813550Y-106705400D01*
X153654800Y-106864150D01*
X153651728Y-107578400D01*
X153583826Y-107578400D01*
X153571812Y-107456418D01*
X153535502Y-107336720D01*
X153476537Y-107226406D01*
X153397185Y-107129715D01*
X153300494Y-107050363D01*
X153190180Y-106991398D01*
X153070482Y-106955088D01*
X152946000Y-106942828D01*
X150266000Y-106942828D01*
X150141518Y-106955088D01*
X150021820Y-106991398D01*
X149911506Y-107050363D01*
X149814815Y-107129715D01*
X149735463Y-107226406D01*
X149676498Y-107336720D01*
X149640188Y-107456418D01*
X149627928Y-107580900D01*
X149627928Y-111180900D01*
X149640188Y-111305382D01*
X149675060Y-111420341D01*
X132765400Y-111442053D01*
X132765400Y-105578400D01*
X153651728Y-105578400D01*
X153654800Y-106292650D01*
X153813550Y-106451400D01*
X154467800Y-106451400D01*
X154467800Y-105102150D01*
X154309050Y-104943400D01*
X154289800Y-104940328D01*
X154165318Y-104952588D01*
X154045620Y-104988898D01*
X153935306Y-105047863D01*
X153838615Y-105127215D01*
X153759263Y-105223906D01*
X153700298Y-105334220D01*
X153663988Y-105453918D01*
X153651728Y-105578400D01*
X132765400Y-105578400D01*
X132765400Y-102248600D01*
X146441528Y-102248600D01*
X146441528Y-103948600D01*
X146453788Y-104073082D01*
X146490098Y-104192780D01*
X146549063Y-104303094D01*
X146628415Y-104399785D01*
X146725106Y-104479137D01*
X146835420Y-104538102D01*
X146955118Y-104574412D01*
X147079600Y-104586672D01*
X148779600Y-104586672D01*
X148904082Y-104574412D01*
X149023780Y-104538102D01*
X149134094Y-104479137D01*
X149230785Y-104399785D01*
X149310137Y-104303094D01*
X149369102Y-104192780D01*
X149405412Y-104073082D01*
X149417672Y-103948600D01*
X149417672Y-103065600D01*
X152254228Y-103065600D01*
X152266488Y-103190082D01*
X152302798Y-103309780D01*
X152361763Y-103420094D01*
X152441115Y-103516785D01*
X152537806Y-103596137D01*
X152648120Y-103655102D01*
X152767818Y-103691412D01*
X152892300Y-103703672D01*
X153144050Y-103700600D01*
X153302800Y-103541850D01*
X153302800Y-102717600D01*
X152416050Y-102717600D01*
X152257300Y-102876350D01*
X152254228Y-103065600D01*
X149417672Y-103065600D01*
X149417672Y-102248600D01*
X149405412Y-102124118D01*
X149402829Y-102115600D01*
X152254228Y-102115600D01*
X152257300Y-102304850D01*
X152416050Y-102463600D01*
X153302800Y-102463600D01*
X153302800Y-101751150D01*
X153315500Y-101738450D01*
X153315500Y-100914200D01*
X152428750Y-100914200D01*
X152270000Y-101072950D01*
X152266928Y-101262200D01*
X152279188Y-101386682D01*
X152315498Y-101506380D01*
X152374463Y-101616694D01*
X152427371Y-101681162D01*
X152361763Y-101761106D01*
X152302798Y-101871420D01*
X152266488Y-101991118D01*
X152254228Y-102115600D01*
X149402829Y-102115600D01*
X149369102Y-102004420D01*
X149310137Y-101894106D01*
X149230785Y-101797415D01*
X149134094Y-101718063D01*
X149023780Y-101659098D01*
X148943134Y-101634634D01*
X149027188Y-101558869D01*
X149201241Y-101325520D01*
X149326425Y-101062699D01*
X149371076Y-100915490D01*
X149249755Y-100685600D01*
X148056600Y-100685600D01*
X148056600Y-100705600D01*
X147802600Y-100705600D01*
X147802600Y-100685600D01*
X146609445Y-100685600D01*
X146488124Y-100915490D01*
X146532775Y-101062699D01*
X146657959Y-101325520D01*
X146832012Y-101558869D01*
X146916066Y-101634634D01*
X146835420Y-101659098D01*
X146725106Y-101718063D01*
X146628415Y-101797415D01*
X146549063Y-101894106D01*
X146490098Y-102004420D01*
X146453788Y-102124118D01*
X146441528Y-102248600D01*
X132765400Y-102248600D01*
X132765400Y-100201710D01*
X146488124Y-100201710D01*
X146609445Y-100431600D01*
X147802600Y-100431600D01*
X147802600Y-99237786D01*
X148056600Y-99237786D01*
X148056600Y-100431600D01*
X149249755Y-100431600D01*
X149312766Y-100312200D01*
X152266928Y-100312200D01*
X152270000Y-100501450D01*
X152428750Y-100660200D01*
X153315500Y-100660200D01*
X153315500Y-99835950D01*
X153156750Y-99677200D01*
X152905000Y-99674128D01*
X152780518Y-99686388D01*
X152660820Y-99722698D01*
X152550506Y-99781663D01*
X152453815Y-99861015D01*
X152374463Y-99957706D01*
X152315498Y-100068020D01*
X152279188Y-100187718D01*
X152266928Y-100312200D01*
X149312766Y-100312200D01*
X149371076Y-100201710D01*
X149326425Y-100054501D01*
X149201241Y-99791680D01*
X149027188Y-99558331D01*
X148810955Y-99363422D01*
X148560852Y-99214443D01*
X148286491Y-99117119D01*
X148056600Y-99237786D01*
X147802600Y-99237786D01*
X147572709Y-99117119D01*
X147298348Y-99214443D01*
X147048245Y-99363422D01*
X146832012Y-99558331D01*
X146657959Y-99791680D01*
X146532775Y-100054501D01*
X146488124Y-100201710D01*
X132765400Y-100201710D01*
X132765400Y-96000200D01*
X146492328Y-96000200D01*
X146492328Y-97700200D01*
X146504588Y-97824682D01*
X146540898Y-97944380D01*
X146599863Y-98054694D01*
X146679215Y-98151385D01*
X146775906Y-98230737D01*
X146886220Y-98289702D01*
X147005918Y-98326012D01*
X147130400Y-98338272D01*
X148830400Y-98338272D01*
X148954882Y-98326012D01*
X149074580Y-98289702D01*
X149184894Y-98230737D01*
X149281585Y-98151385D01*
X149360937Y-98054694D01*
X149419902Y-97944380D01*
X149456212Y-97824682D01*
X149468472Y-97700200D01*
X149468472Y-97635600D01*
X149608699Y-97635600D01*
X149971599Y-97998501D01*
X149995398Y-98027500D01*
X150111123Y-98122473D01*
X150243152Y-98193045D01*
X150386413Y-98236502D01*
X150498066Y-98247499D01*
X150498076Y-98247499D01*
X150535399Y-98251175D01*
X150572722Y-98247499D01*
X156531870Y-98247499D01*
X156528559Y-98258414D01*
X156513403Y-98412300D01*
X156517201Y-98450863D01*
X156517200Y-99977200D01*
X156124886Y-99977200D01*
X156086623Y-99930577D01*
X155953942Y-99821688D01*
X155802567Y-99740777D01*
X155638316Y-99690952D01*
X155467500Y-99674128D01*
X154867500Y-99674128D01*
X154696684Y-99690952D01*
X154532433Y-99740777D01*
X154382394Y-99820974D01*
X154334494Y-99781663D01*
X154224180Y-99722698D01*
X154104482Y-99686388D01*
X153980000Y-99674128D01*
X153728250Y-99677200D01*
X153569500Y-99835950D01*
X153569500Y-100660200D01*
X153589500Y-100660200D01*
X153589500Y-100914200D01*
X153569500Y-100914200D01*
X153569500Y-101626650D01*
X153556800Y-101639350D01*
X153556800Y-102463600D01*
X153576800Y-102463600D01*
X153576800Y-102717600D01*
X153556800Y-102717600D01*
X153556800Y-103541850D01*
X153715550Y-103700600D01*
X153967300Y-103703672D01*
X154091782Y-103691412D01*
X154211480Y-103655102D01*
X154321794Y-103596137D01*
X154369694Y-103556826D01*
X154519733Y-103637023D01*
X154683984Y-103686848D01*
X154854800Y-103703672D01*
X155454800Y-103703672D01*
X155625616Y-103686848D01*
X155789867Y-103637023D01*
X155941242Y-103556112D01*
X156073923Y-103447223D01*
X156132703Y-103375600D01*
X157314447Y-103375600D01*
X157353000Y-103379397D01*
X157391553Y-103375600D01*
X157391561Y-103375600D01*
X157506887Y-103364241D01*
X157654860Y-103319354D01*
X157791233Y-103246462D01*
X157910764Y-103148364D01*
X157935347Y-103118410D01*
X158139357Y-102914400D01*
X158166139Y-102914400D01*
X158366098Y-102874626D01*
X158554456Y-102796605D01*
X158723974Y-102683337D01*
X158868137Y-102539174D01*
X158981405Y-102369656D01*
X159059426Y-102181298D01*
X159099200Y-101981339D01*
X159099200Y-101777461D01*
X159059426Y-101577502D01*
X158981405Y-101389144D01*
X158868137Y-101219626D01*
X158849200Y-101200689D01*
X158849200Y-99616071D01*
X159740600Y-99616071D01*
X159865082Y-99603811D01*
X159984780Y-99567501D01*
X160095094Y-99508536D01*
X160191785Y-99429184D01*
X160271137Y-99332493D01*
X160330102Y-99222179D01*
X160366412Y-99102481D01*
X160378672Y-98977999D01*
X160378672Y-98622399D01*
X160366412Y-98497917D01*
X160359521Y-98475200D01*
X160366412Y-98452482D01*
X160378672Y-98328000D01*
X160378672Y-97972400D01*
X160366412Y-97847918D01*
X160359520Y-97825199D01*
X160366412Y-97802481D01*
X160378672Y-97677999D01*
X160378672Y-97322399D01*
X160366412Y-97197917D01*
X160359521Y-97175200D01*
X160366412Y-97152482D01*
X160378672Y-97028000D01*
X160378672Y-96672400D01*
X160366412Y-96547918D01*
X160359520Y-96525200D01*
X160366412Y-96502481D01*
X160378672Y-96377999D01*
X160378672Y-96022399D01*
X160366412Y-95897917D01*
X160359521Y-95875200D01*
X160366412Y-95852482D01*
X160378672Y-95728000D01*
X160378672Y-95372400D01*
X160366412Y-95247918D01*
X160359520Y-95225200D01*
X160366412Y-95202481D01*
X160378672Y-95077999D01*
X160378672Y-94722399D01*
X160366412Y-94597917D01*
X160330102Y-94478219D01*
X160271137Y-94367905D01*
X160191785Y-94271214D01*
X160095094Y-94191862D01*
X159984780Y-94132897D01*
X159865082Y-94096587D01*
X159740600Y-94084327D01*
X158381700Y-94084327D01*
X158257218Y-94096587D01*
X158155315Y-94127499D01*
X153050801Y-94127499D01*
X150569200Y-91645899D01*
X150569200Y-91096325D01*
X150572876Y-91059000D01*
X150569200Y-91021675D01*
X150569200Y-91021667D01*
X150558203Y-90910014D01*
X150514746Y-90766753D01*
X150444174Y-90634724D01*
X150349201Y-90518999D01*
X150320203Y-90495201D01*
X149421610Y-89596608D01*
X149465400Y-89376460D01*
X149465400Y-89083940D01*
X149408332Y-88797042D01*
X149296390Y-88526789D01*
X149133875Y-88283568D01*
X148927032Y-88076725D01*
X148683811Y-87914210D01*
X148413558Y-87802268D01*
X148126660Y-87745200D01*
X147834140Y-87745200D01*
X147547242Y-87802268D01*
X147276989Y-87914210D01*
X147033768Y-88076725D01*
X146826925Y-88283568D01*
X146664410Y-88526789D01*
X146552468Y-88797042D01*
X146495400Y-89083940D01*
X146495400Y-89376460D01*
X146552468Y-89663358D01*
X146664410Y-89933611D01*
X146826925Y-90176832D01*
X147033768Y-90383675D01*
X147208160Y-90500200D01*
X147033768Y-90616725D01*
X146826925Y-90823568D01*
X146664410Y-91066789D01*
X146552468Y-91337042D01*
X146495400Y-91623940D01*
X146495400Y-91916460D01*
X146552468Y-92203358D01*
X146664410Y-92473611D01*
X146826925Y-92716832D01*
X147033768Y-92923675D01*
X147208160Y-93040200D01*
X147033768Y-93156725D01*
X146826925Y-93363568D01*
X146664410Y-93606789D01*
X146552468Y-93877042D01*
X146495400Y-94163940D01*
X146495400Y-94456460D01*
X146552468Y-94743358D01*
X146664410Y-95013611D01*
X146826925Y-95256832D01*
X146958780Y-95388687D01*
X146886220Y-95410698D01*
X146775906Y-95469663D01*
X146679215Y-95549015D01*
X146599863Y-95645706D01*
X146540898Y-95756020D01*
X146504588Y-95875718D01*
X146492328Y-96000200D01*
X132765400Y-96000200D01*
X132765400Y-83959700D01*
X134731228Y-83959700D01*
X134743488Y-84084182D01*
X134779798Y-84203880D01*
X134838763Y-84314194D01*
X134918115Y-84410885D01*
X135014806Y-84490237D01*
X135125120Y-84549202D01*
X135244818Y-84585512D01*
X135369300Y-84597772D01*
X136290050Y-84594700D01*
X136448800Y-84435950D01*
X136448800Y-81546700D01*
X136702800Y-81546700D01*
X136702800Y-84435950D01*
X136861550Y-84594700D01*
X137782300Y-84597772D01*
X137906782Y-84585512D01*
X138026480Y-84549202D01*
X138136794Y-84490237D01*
X138233485Y-84410885D01*
X138312837Y-84314194D01*
X138371802Y-84203880D01*
X138408112Y-84084182D01*
X138420372Y-83959700D01*
X138417300Y-81705450D01*
X138258550Y-81546700D01*
X136702800Y-81546700D01*
X136448800Y-81546700D01*
X134893050Y-81546700D01*
X134734300Y-81705450D01*
X134731228Y-83959700D01*
X132765400Y-83959700D01*
X132765400Y-79158983D01*
X134731610Y-79159824D01*
%TA.AperFunction,Conductor*%
D23*
G36*
X134731610Y-79159824D02*
G01*
X134734300Y-81133950D01*
X134893050Y-81292700D01*
X136448800Y-81292700D01*
X136448800Y-81272700D01*
X136702800Y-81272700D01*
X136702800Y-81292700D01*
X138258550Y-81292700D01*
X138417300Y-81133950D01*
X138419988Y-79161403D01*
X139176228Y-79161727D01*
X139176228Y-83959700D01*
X139188488Y-84084182D01*
X139224798Y-84203880D01*
X139283763Y-84314194D01*
X139363115Y-84410885D01*
X139459806Y-84490237D01*
X139570120Y-84549202D01*
X139689818Y-84585512D01*
X139814300Y-84597772D01*
X142100300Y-84597772D01*
X142224782Y-84585512D01*
X142344480Y-84549202D01*
X142454794Y-84490237D01*
X142551485Y-84410885D01*
X142630837Y-84314194D01*
X142689802Y-84203880D01*
X142726112Y-84084182D01*
X142738372Y-83959700D01*
X143494228Y-83959700D01*
X143506488Y-84084182D01*
X143542798Y-84203880D01*
X143601763Y-84314194D01*
X143681115Y-84410885D01*
X143777806Y-84490237D01*
X143888120Y-84549202D01*
X144007818Y-84585512D01*
X144132300Y-84597772D01*
X145053050Y-84594700D01*
X145211800Y-84435950D01*
X145211800Y-81546700D01*
X145465800Y-81546700D01*
X145465800Y-84435950D01*
X145624550Y-84594700D01*
X146545300Y-84597772D01*
X146669782Y-84585512D01*
X146789480Y-84549202D01*
X146899794Y-84490237D01*
X146996485Y-84410885D01*
X147075837Y-84314194D01*
X147134802Y-84203880D01*
X147171112Y-84084182D01*
X147183372Y-83959700D01*
X147183303Y-83908900D01*
X148650428Y-83908900D01*
X148662688Y-84033382D01*
X148698998Y-84153080D01*
X148757963Y-84263394D01*
X148837315Y-84360085D01*
X148934006Y-84439437D01*
X149044320Y-84498402D01*
X149164018Y-84534712D01*
X149288500Y-84546972D01*
X150209250Y-84543900D01*
X150368000Y-84385150D01*
X150368000Y-81495900D01*
X150622000Y-81495900D01*
X150622000Y-84385150D01*
X150780750Y-84543900D01*
X151701500Y-84546972D01*
X151825982Y-84534712D01*
X151945680Y-84498402D01*
X152055994Y-84439437D01*
X152152685Y-84360085D01*
X152232037Y-84263394D01*
X152291002Y-84153080D01*
X152327312Y-84033382D01*
X152339572Y-83908900D01*
X152336500Y-81654650D01*
X152177750Y-81495900D01*
X150622000Y-81495900D01*
X150368000Y-81495900D01*
X148812250Y-81495900D01*
X148653500Y-81654650D01*
X148650428Y-83908900D01*
X147183303Y-83908900D01*
X147180300Y-81705450D01*
X147021550Y-81546700D01*
X145465800Y-81546700D01*
X145211800Y-81546700D01*
X143656050Y-81546700D01*
X143497300Y-81705450D01*
X143494228Y-83959700D01*
X142738372Y-83959700D01*
X142738372Y-79163252D01*
X143494615Y-79163575D01*
X143497300Y-81133950D01*
X143656050Y-81292700D01*
X145211800Y-81292700D01*
X145211800Y-81272700D01*
X145465800Y-81272700D01*
X145465800Y-81292700D01*
X147021550Y-81292700D01*
X147180300Y-81133950D01*
X147182983Y-79165154D01*
X148650887Y-79165783D01*
X148653500Y-81083150D01*
X148812250Y-81241900D01*
X150368000Y-81241900D01*
X150368000Y-81221900D01*
X150622000Y-81221900D01*
X150622000Y-81241900D01*
X152177750Y-81241900D01*
X152336500Y-81083150D01*
X152339111Y-79167361D01*
X153095428Y-79167685D01*
X153095428Y-83908900D01*
X153107688Y-84033382D01*
X153143998Y-84153080D01*
X153202963Y-84263394D01*
X153282315Y-84360085D01*
X153379006Y-84439437D01*
X153489320Y-84498402D01*
X153609018Y-84534712D01*
X153733500Y-84546972D01*
X156019500Y-84546972D01*
X156143982Y-84534712D01*
X156263680Y-84498402D01*
X156373994Y-84439437D01*
X156470685Y-84360085D01*
X156550037Y-84263394D01*
X156609002Y-84153080D01*
X156645312Y-84033382D01*
X156657572Y-83908900D01*
X157413428Y-83908900D01*
X157425688Y-84033382D01*
X157461998Y-84153080D01*
X157520963Y-84263394D01*
X157600315Y-84360085D01*
X157697006Y-84439437D01*
X157807320Y-84498402D01*
X157927018Y-84534712D01*
X158051500Y-84546972D01*
X158972250Y-84543900D01*
X159131000Y-84385150D01*
X159131000Y-81495900D01*
X159385000Y-81495900D01*
X159385000Y-84385150D01*
X159543750Y-84543900D01*
X160464500Y-84546972D01*
X160588982Y-84534712D01*
X160708680Y-84498402D01*
X160818994Y-84439437D01*
X160915685Y-84360085D01*
X160995037Y-84263394D01*
X161054002Y-84153080D01*
X161090312Y-84033382D01*
X161102572Y-83908900D01*
X162620428Y-83908900D01*
X162632688Y-84033382D01*
X162668998Y-84153080D01*
X162727963Y-84263394D01*
X162807315Y-84360085D01*
X162904006Y-84439437D01*
X163014320Y-84498402D01*
X163134018Y-84534712D01*
X163258500Y-84546972D01*
X164179250Y-84543900D01*
X164338000Y-84385150D01*
X164338000Y-81495900D01*
X164592000Y-81495900D01*
X164592000Y-84385150D01*
X164750750Y-84543900D01*
X165671500Y-84546972D01*
X165795982Y-84534712D01*
X165915680Y-84498402D01*
X166025994Y-84439437D01*
X166122685Y-84360085D01*
X166202037Y-84263394D01*
X166261002Y-84153080D01*
X166297312Y-84033382D01*
X166309572Y-83908900D01*
X166306500Y-81654650D01*
X166147750Y-81495900D01*
X164592000Y-81495900D01*
X164338000Y-81495900D01*
X162782250Y-81495900D01*
X162623500Y-81654650D01*
X162620428Y-83908900D01*
X161102572Y-83908900D01*
X161099500Y-81654650D01*
X160940750Y-81495900D01*
X159385000Y-81495900D01*
X159131000Y-81495900D01*
X157575250Y-81495900D01*
X157416500Y-81654650D01*
X157413428Y-83908900D01*
X156657572Y-83908900D01*
X156657572Y-79169210D01*
X157413892Y-79169534D01*
X157416500Y-81083150D01*
X157575250Y-81241900D01*
X159131000Y-81241900D01*
X159131000Y-81221900D01*
X159385000Y-81221900D01*
X159385000Y-81241900D01*
X160940750Y-81241900D01*
X161099500Y-81083150D01*
X161102106Y-79171113D01*
X162620895Y-79171763D01*
X162623500Y-81083150D01*
X162782250Y-81241900D01*
X164338000Y-81241900D01*
X164338000Y-81221900D01*
X164592000Y-81221900D01*
X164592000Y-81241900D01*
X166147750Y-81241900D01*
X166306500Y-81083150D01*
X166309103Y-79173342D01*
X167065428Y-79173665D01*
X167065428Y-83908900D01*
X167077688Y-84033382D01*
X167113998Y-84153080D01*
X167172963Y-84263394D01*
X167252315Y-84360085D01*
X167349006Y-84439437D01*
X167459320Y-84498402D01*
X167579018Y-84534712D01*
X167703500Y-84546972D01*
X169989500Y-84546972D01*
X170113982Y-84534712D01*
X170233680Y-84498402D01*
X170343994Y-84439437D01*
X170440685Y-84360085D01*
X170520037Y-84263394D01*
X170579002Y-84153080D01*
X170615312Y-84033382D01*
X170627572Y-83908900D01*
X171383428Y-83908900D01*
X171395688Y-84033382D01*
X171431998Y-84153080D01*
X171490963Y-84263394D01*
X171570315Y-84360085D01*
X171667006Y-84439437D01*
X171777320Y-84498402D01*
X171897018Y-84534712D01*
X172021500Y-84546972D01*
X172942250Y-84543900D01*
X173101000Y-84385150D01*
X173101000Y-81495900D01*
X173355000Y-81495900D01*
X173355000Y-84385150D01*
X173513750Y-84543900D01*
X174434500Y-84546972D01*
X174558982Y-84534712D01*
X174678680Y-84498402D01*
X174788994Y-84439437D01*
X174885685Y-84360085D01*
X174965037Y-84263394D01*
X175024002Y-84153080D01*
X175060312Y-84033382D01*
X175072572Y-83908900D01*
X176666628Y-83908900D01*
X176678888Y-84033382D01*
X176715198Y-84153080D01*
X176774163Y-84263394D01*
X176853515Y-84360085D01*
X176950206Y-84439437D01*
X177060520Y-84498402D01*
X177180218Y-84534712D01*
X177304700Y-84546972D01*
X178225450Y-84543900D01*
X178384200Y-84385150D01*
X178384200Y-81495900D01*
X178638200Y-81495900D01*
X178638200Y-84385150D01*
X178796950Y-84543900D01*
X179717700Y-84546972D01*
X179842182Y-84534712D01*
X179961880Y-84498402D01*
X180072194Y-84439437D01*
X180168885Y-84360085D01*
X180248237Y-84263394D01*
X180307202Y-84153080D01*
X180343512Y-84033382D01*
X180355772Y-83908900D01*
X180352700Y-81654650D01*
X180193950Y-81495900D01*
X178638200Y-81495900D01*
X178384200Y-81495900D01*
X176828450Y-81495900D01*
X176669700Y-81654650D01*
X176666628Y-83908900D01*
X175072572Y-83908900D01*
X175069500Y-81654650D01*
X174910750Y-81495900D01*
X173355000Y-81495900D01*
X173101000Y-81495900D01*
X171545250Y-81495900D01*
X171386500Y-81654650D01*
X171383428Y-83908900D01*
X170627572Y-83908900D01*
X170627572Y-79175190D01*
X171383900Y-79175514D01*
X171386500Y-81083150D01*
X171545250Y-81241900D01*
X173101000Y-81241900D01*
X173101000Y-81221900D01*
X173355000Y-81221900D01*
X173355000Y-81241900D01*
X174910750Y-81241900D01*
X175069500Y-81083150D01*
X175072097Y-79177093D01*
X176667103Y-79177776D01*
X176669700Y-81083150D01*
X176828450Y-81241900D01*
X178384200Y-81241900D01*
X178384200Y-81221900D01*
X178638200Y-81221900D01*
X178638200Y-81241900D01*
X180193950Y-81241900D01*
X180352700Y-81083150D01*
X180355294Y-79179354D01*
X181111628Y-79179678D01*
X181111628Y-83908900D01*
X181123888Y-84033382D01*
X181160198Y-84153080D01*
X181219163Y-84263394D01*
X181298515Y-84360085D01*
X181395206Y-84439437D01*
X181505520Y-84498402D01*
X181625218Y-84534712D01*
X181749700Y-84546972D01*
X184035700Y-84546972D01*
X184160182Y-84534712D01*
X184279880Y-84498402D01*
X184390194Y-84439437D01*
X184486885Y-84360085D01*
X184566237Y-84263394D01*
X184625202Y-84153080D01*
X184661512Y-84033382D01*
X184673772Y-83908900D01*
X185429628Y-83908900D01*
X185441888Y-84033382D01*
X185478198Y-84153080D01*
X185537163Y-84263394D01*
X185616515Y-84360085D01*
X185713206Y-84439437D01*
X185823520Y-84498402D01*
X185943218Y-84534712D01*
X186067700Y-84546972D01*
X186988450Y-84543900D01*
X187147200Y-84385150D01*
X187147200Y-81495900D01*
X187401200Y-81495900D01*
X187401200Y-84385150D01*
X187559950Y-84543900D01*
X188480700Y-84546972D01*
X188605182Y-84534712D01*
X188724880Y-84498402D01*
X188835194Y-84439437D01*
X188931885Y-84360085D01*
X189011237Y-84263394D01*
X189070202Y-84153080D01*
X189106512Y-84033382D01*
X189118772Y-83908900D01*
X189115700Y-81654650D01*
X188956950Y-81495900D01*
X187401200Y-81495900D01*
X187147200Y-81495900D01*
X185591450Y-81495900D01*
X185432700Y-81654650D01*
X185429628Y-83908900D01*
X184673772Y-83908900D01*
X184673772Y-79181203D01*
X185430109Y-79181527D01*
X185432700Y-81083150D01*
X185591450Y-81241900D01*
X187147200Y-81241900D01*
X187147200Y-81221900D01*
X187401200Y-81221900D01*
X187401200Y-81241900D01*
X188956950Y-81241900D01*
X189115700Y-81083150D01*
X189118289Y-79183105D01*
X190780050Y-79183817D01*
X190792251Y-111367547D01*
X173523977Y-111389719D01*
X173549712Y-111304882D01*
X173561972Y-111180400D01*
X173561972Y-107580400D01*
X173549712Y-107455918D01*
X173513402Y-107336220D01*
X173454437Y-107225906D01*
X173375085Y-107129215D01*
X173278394Y-107049863D01*
X173168080Y-106990898D01*
X173048382Y-106954588D01*
X172923900Y-106942328D01*
X170243900Y-106942328D01*
X170119418Y-106954588D01*
X169999720Y-106990898D01*
X169889406Y-107049863D01*
X169792715Y-107129215D01*
X169713363Y-107225906D01*
X169654398Y-107336220D01*
X169618088Y-107455918D01*
X169605828Y-107580400D01*
X169605828Y-111180400D01*
X169618088Y-111304882D01*
X169645334Y-111394700D01*
X153538444Y-111415381D01*
X153571812Y-111305382D01*
X153584072Y-111180900D01*
X153584072Y-109092561D01*
X154552700Y-109092561D01*
X154552700Y-109296439D01*
X154592474Y-109496398D01*
X154670495Y-109684756D01*
X154783763Y-109854274D01*
X154927926Y-109998437D01*
X155097444Y-110111705D01*
X155285802Y-110189726D01*
X155485761Y-110229500D01*
X155556000Y-110229500D01*
X155556000Y-110248939D01*
X155595774Y-110448898D01*
X155673795Y-110637256D01*
X155787063Y-110806774D01*
X155931226Y-110950937D01*
X156100744Y-111064205D01*
X156289102Y-111142226D01*
X156489061Y-111182000D01*
X156692939Y-111182000D01*
X156892898Y-111142226D01*
X157081256Y-111064205D01*
X157250774Y-110950937D01*
X157394937Y-110806774D01*
X157508205Y-110637256D01*
X157586226Y-110448898D01*
X157626000Y-110248939D01*
X157626000Y-110045061D01*
X160559800Y-110045061D01*
X160559800Y-110248939D01*
X160599574Y-110448898D01*
X160677595Y-110637256D01*
X160790863Y-110806774D01*
X160935026Y-110950937D01*
X161104544Y-111064205D01*
X161292902Y-111142226D01*
X161492861Y-111182000D01*
X161696739Y-111182000D01*
X161896698Y-111142226D01*
X162085056Y-111064205D01*
X162254574Y-110950937D01*
X162398737Y-110806774D01*
X162512005Y-110637256D01*
X162590026Y-110448898D01*
X162629800Y-110248939D01*
X162629800Y-110229500D01*
X162700039Y-110229500D01*
X162899998Y-110189726D01*
X163088356Y-110111705D01*
X163257874Y-109998437D01*
X163402037Y-109854274D01*
X163515305Y-109684756D01*
X163593326Y-109496398D01*
X163633100Y-109296439D01*
X163633100Y-109092561D01*
X163593326Y-108892602D01*
X163515305Y-108704244D01*
X163402037Y-108534726D01*
X163329800Y-108462489D01*
X163329800Y-108192650D01*
X163467800Y-108054650D01*
X163467800Y-107862807D01*
X163489302Y-107822580D01*
X163525612Y-107702882D01*
X163537872Y-107578400D01*
X163537872Y-106431400D01*
X163651728Y-106431400D01*
X163651728Y-107578400D01*
X163663988Y-107702882D01*
X163700298Y-107822580D01*
X163721800Y-107862807D01*
X163721800Y-108054650D01*
X163880550Y-108213400D01*
X163899800Y-108216472D01*
X164024282Y-108204212D01*
X164094800Y-108182821D01*
X164165318Y-108204212D01*
X164289800Y-108216472D01*
X164899800Y-108216472D01*
X165024282Y-108204212D01*
X165094800Y-108182821D01*
X165165318Y-108204212D01*
X165289800Y-108216472D01*
X165899800Y-108216472D01*
X166024282Y-108204212D01*
X166094800Y-108182821D01*
X166165318Y-108204212D01*
X166289800Y-108216472D01*
X166899800Y-108216472D01*
X167024282Y-108204212D01*
X167094800Y-108182821D01*
X167165318Y-108204212D01*
X167289800Y-108216472D01*
X167899800Y-108216472D01*
X168024282Y-108204212D01*
X168094800Y-108182821D01*
X168165318Y-108204212D01*
X168289800Y-108216472D01*
X168899800Y-108216472D01*
X169024282Y-108204212D01*
X169143980Y-108167902D01*
X169254294Y-108108937D01*
X169350985Y-108029585D01*
X169430337Y-107932894D01*
X169489302Y-107822580D01*
X169525612Y-107702882D01*
X169537872Y-107578400D01*
X169537872Y-105578400D01*
X169525612Y-105453918D01*
X169489302Y-105334220D01*
X169430337Y-105223906D01*
X169404800Y-105192789D01*
X169404800Y-103662710D01*
X169448587Y-103639305D01*
X169583162Y-103528862D01*
X169605200Y-103502009D01*
X169627238Y-103528862D01*
X169761813Y-103639305D01*
X169915349Y-103721372D01*
X170081945Y-103771908D01*
X170255199Y-103788972D01*
X170955201Y-103788972D01*
X171128455Y-103771908D01*
X171295051Y-103721372D01*
X171448587Y-103639305D01*
X171583162Y-103528862D01*
X171693605Y-103394287D01*
X171775672Y-103240751D01*
X171826208Y-103074155D01*
X171843272Y-102900901D01*
X171843272Y-102439100D01*
X174102128Y-102439100D01*
X174102128Y-104139100D01*
X174114388Y-104263582D01*
X174150698Y-104383280D01*
X174209663Y-104493594D01*
X174289015Y-104590285D01*
X174385706Y-104669637D01*
X174496020Y-104728602D01*
X174615718Y-104764912D01*
X174740200Y-104777172D01*
X176440200Y-104777172D01*
X176564682Y-104764912D01*
X176684380Y-104728602D01*
X176794694Y-104669637D01*
X176891385Y-104590285D01*
X176970737Y-104493594D01*
X177029702Y-104383280D01*
X177066012Y-104263582D01*
X177078272Y-104139100D01*
X177078272Y-102439100D01*
X177066012Y-102314618D01*
X177029702Y-102194920D01*
X176970737Y-102084606D01*
X176891385Y-101987915D01*
X176794694Y-101908563D01*
X176684380Y-101849598D01*
X176603734Y-101825134D01*
X176687788Y-101749369D01*
X176861841Y-101516020D01*
X176987025Y-101253199D01*
X177031676Y-101105990D01*
X176910355Y-100876100D01*
X175717200Y-100876100D01*
X175717200Y-100896100D01*
X175463200Y-100896100D01*
X175463200Y-100876100D01*
X174270045Y-100876100D01*
X174148724Y-101105990D01*
X174193375Y-101253199D01*
X174318559Y-101516020D01*
X174492612Y-101749369D01*
X174576666Y-101825134D01*
X174496020Y-101849598D01*
X174385706Y-101908563D01*
X174289015Y-101987915D01*
X174209663Y-102084606D01*
X174150698Y-102194920D01*
X174114388Y-102314618D01*
X174102128Y-102439100D01*
X171843272Y-102439100D01*
X171843272Y-102000899D01*
X171826208Y-101827645D01*
X171775672Y-101661049D01*
X171693605Y-101507513D01*
X171583162Y-101372938D01*
X171498779Y-101303686D01*
X171516305Y-101277456D01*
X171594326Y-101089098D01*
X171634100Y-100889139D01*
X171634100Y-100685261D01*
X171594326Y-100485302D01*
X171555766Y-100392210D01*
X174148724Y-100392210D01*
X174270045Y-100622100D01*
X175463200Y-100622100D01*
X175463200Y-99428286D01*
X175717200Y-99428286D01*
X175717200Y-100622100D01*
X176910355Y-100622100D01*
X177031676Y-100392210D01*
X176987025Y-100245001D01*
X176861841Y-99982180D01*
X176687788Y-99748831D01*
X176471555Y-99553922D01*
X176221452Y-99404943D01*
X175947091Y-99307619D01*
X175717200Y-99428286D01*
X175463200Y-99428286D01*
X175233309Y-99307619D01*
X174958948Y-99404943D01*
X174708845Y-99553922D01*
X174492612Y-99748831D01*
X174318559Y-99982180D01*
X174193375Y-100245001D01*
X174148724Y-100392210D01*
X171555766Y-100392210D01*
X171516305Y-100296944D01*
X171403037Y-100127426D01*
X171258874Y-99983263D01*
X171089356Y-99869995D01*
X170900998Y-99791974D01*
X170701039Y-99752200D01*
X170497161Y-99752200D01*
X170297202Y-99791974D01*
X170108844Y-99869995D01*
X169939326Y-99983263D01*
X169795163Y-100127426D01*
X169681895Y-100296944D01*
X169603874Y-100485302D01*
X169564100Y-100685261D01*
X169564100Y-100889139D01*
X169603874Y-101089098D01*
X169681895Y-101277456D01*
X169703742Y-101310153D01*
X169627238Y-101372938D01*
X169605200Y-101399791D01*
X169583162Y-101372938D01*
X169448587Y-101262495D01*
X169295051Y-101180428D01*
X169128455Y-101129892D01*
X168955201Y-101112828D01*
X168255199Y-101112828D01*
X168081945Y-101129892D01*
X167915349Y-101180428D01*
X167761813Y-101262495D01*
X167627238Y-101372938D01*
X167516795Y-101507513D01*
X167434728Y-101661049D01*
X167384192Y-101827645D01*
X167367128Y-102000899D01*
X167367128Y-102900901D01*
X167373303Y-102963602D01*
X166541205Y-102131504D01*
X166517402Y-102102500D01*
X166401677Y-102007527D01*
X166269648Y-101936955D01*
X166126387Y-101893498D01*
X166014734Y-101882501D01*
X166014723Y-101882501D01*
X165977401Y-101878825D01*
X165940079Y-101882501D01*
X165855600Y-101882501D01*
X165855600Y-101815561D01*
X165815826Y-101615602D01*
X165737805Y-101427244D01*
X165624537Y-101257726D01*
X165574250Y-101207439D01*
X165574250Y-99608140D01*
X165618182Y-99603813D01*
X165737880Y-99567503D01*
X165848194Y-99508538D01*
X165944885Y-99429186D01*
X166024237Y-99332495D01*
X166083202Y-99222181D01*
X166119512Y-99102483D01*
X166131772Y-98978001D01*
X166131772Y-98910200D01*
X173554378Y-98910200D01*
X173591700Y-98913876D01*
X173629022Y-98910200D01*
X173629033Y-98910200D01*
X173740686Y-98899203D01*
X173883947Y-98855746D01*
X174015976Y-98785174D01*
X174131701Y-98690201D01*
X174155504Y-98661198D01*
X174332039Y-98484662D01*
X174347606Y-98497437D01*
X174457920Y-98556402D01*
X174577618Y-98592712D01*
X174702100Y-98604972D01*
X176402100Y-98604972D01*
X176526582Y-98592712D01*
X176646280Y-98556402D01*
X176756594Y-98497437D01*
X176853285Y-98418085D01*
X176932637Y-98321394D01*
X176991602Y-98211080D01*
X177027912Y-98091382D01*
X177040172Y-97966900D01*
X177040172Y-96266900D01*
X177027912Y-96142418D01*
X176991602Y-96022720D01*
X176932637Y-95912406D01*
X176853285Y-95815715D01*
X176756594Y-95736363D01*
X176646280Y-95677398D01*
X176573720Y-95655387D01*
X176705575Y-95523532D01*
X176868090Y-95280311D01*
X176980032Y-95010058D01*
X177037100Y-94723160D01*
X177037100Y-94430640D01*
X176980032Y-94143742D01*
X176868090Y-93873489D01*
X176705575Y-93630268D01*
X176498732Y-93423425D01*
X176324340Y-93306900D01*
X176498732Y-93190375D01*
X176705575Y-92983532D01*
X176868090Y-92740311D01*
X176980032Y-92470058D01*
X177037100Y-92183160D01*
X177037100Y-91890640D01*
X176980032Y-91603742D01*
X176868090Y-91333489D01*
X176705575Y-91090268D01*
X176498732Y-90883425D01*
X176324340Y-90766900D01*
X176498732Y-90650375D01*
X176705575Y-90443532D01*
X176868090Y-90200311D01*
X176980032Y-89930058D01*
X177037100Y-89643160D01*
X177037100Y-89350640D01*
X176980032Y-89063742D01*
X176868090Y-88793489D01*
X176705575Y-88550268D01*
X176498732Y-88343425D01*
X176255511Y-88180910D01*
X175985258Y-88068968D01*
X175698360Y-88011900D01*
X175405840Y-88011900D01*
X175118942Y-88068968D01*
X174848689Y-88180910D01*
X174605468Y-88343425D01*
X174398625Y-88550268D01*
X174274185Y-88736505D01*
X174270176Y-88736900D01*
X174270167Y-88736900D01*
X174158514Y-88747897D01*
X174015253Y-88791354D01*
X173883224Y-88861926D01*
X173767499Y-88956899D01*
X173743696Y-88985903D01*
X173440898Y-89288701D01*
X173411900Y-89312499D01*
X173388102Y-89341497D01*
X173388101Y-89341498D01*
X173316926Y-89428224D01*
X173246354Y-89560254D01*
X173202898Y-89703515D01*
X173188224Y-89852500D01*
X173191901Y-89889832D01*
X173191900Y-90998198D01*
X172666198Y-91523901D01*
X172637200Y-91547699D01*
X172613402Y-91576697D01*
X172613401Y-91576698D01*
X172542226Y-91663424D01*
X172471654Y-91795454D01*
X172428198Y-91938715D01*
X172413524Y-92087700D01*
X172417201Y-92125032D01*
X172417200Y-93322298D01*
X171878798Y-93860701D01*
X171849800Y-93884499D01*
X171826002Y-93913497D01*
X171826001Y-93913498D01*
X171754826Y-94000224D01*
X171684254Y-94132254D01*
X171667864Y-94186287D01*
X171641842Y-94272074D01*
X171640798Y-94275515D01*
X171626124Y-94424500D01*
X171629801Y-94461832D01*
X171629800Y-95427501D01*
X166131772Y-95427501D01*
X166131772Y-95372400D01*
X166119512Y-95247918D01*
X166112977Y-95226374D01*
X166117450Y-95212431D01*
X166128700Y-95109751D01*
X165969950Y-94951001D01*
X165969330Y-94951001D01*
X165944885Y-94921215D01*
X165857379Y-94849401D01*
X165969950Y-94849401D01*
X166128700Y-94690651D01*
X166117450Y-94587971D01*
X166079239Y-94468867D01*
X166018526Y-94359505D01*
X165937644Y-94264090D01*
X165839702Y-94186287D01*
X165728463Y-94129086D01*
X165608202Y-94094687D01*
X165483541Y-94084410D01*
X165100000Y-94087401D01*
X164941250Y-94246151D01*
X164941250Y-94734328D01*
X164687250Y-94734328D01*
X164687250Y-94246151D01*
X164528500Y-94087401D01*
X164144959Y-94084410D01*
X164020298Y-94094687D01*
X163900037Y-94129086D01*
X163788798Y-94186287D01*
X163690856Y-94264090D01*
X163609974Y-94359505D01*
X163549261Y-94468867D01*
X163511050Y-94587971D01*
X163499800Y-94690651D01*
X163658550Y-94849401D01*
X163771121Y-94849401D01*
X163683615Y-94921215D01*
X163659170Y-94951001D01*
X163658550Y-94951001D01*
X163499800Y-95109751D01*
X163511050Y-95212431D01*
X163515523Y-95226374D01*
X163508988Y-95247918D01*
X163496728Y-95372400D01*
X163496728Y-95440201D01*
X163031421Y-95440201D01*
X162994098Y-95436525D01*
X162956775Y-95440201D01*
X162956766Y-95440201D01*
X162845113Y-95451198D01*
X162711053Y-95491864D01*
X162701852Y-95494655D01*
X162569822Y-95565227D01*
X162498263Y-95623955D01*
X162454098Y-95660200D01*
X162430300Y-95689199D01*
X161668002Y-96451497D01*
X161638999Y-96475299D01*
X161583871Y-96542474D01*
X161544026Y-96591024D01*
X161494154Y-96684327D01*
X161473454Y-96723054D01*
X161429997Y-96866315D01*
X161419000Y-96977968D01*
X161419000Y-96977978D01*
X161415324Y-97015300D01*
X161419000Y-97052623D01*
X161419001Y-102565968D01*
X161415324Y-102603300D01*
X161419001Y-102640633D01*
X161429998Y-102752286D01*
X161431026Y-102755674D01*
X161473454Y-102895546D01*
X161544026Y-103027576D01*
X161600406Y-103096274D01*
X161639000Y-103143301D01*
X161667998Y-103167099D01*
X163266200Y-104765302D01*
X163289999Y-104794301D01*
X163318997Y-104818099D01*
X163405724Y-104889274D01*
X163506985Y-104943400D01*
X163467798Y-104943400D01*
X163467798Y-105102148D01*
X163309050Y-104943400D01*
X163289800Y-104940328D01*
X163165318Y-104952588D01*
X163094800Y-104973979D01*
X163024282Y-104952588D01*
X162899800Y-104940328D01*
X162289800Y-104940328D01*
X162165318Y-104952588D01*
X162094800Y-104973979D01*
X162024282Y-104952588D01*
X161899800Y-104940328D01*
X161289800Y-104940328D01*
X161165318Y-104952588D01*
X161094800Y-104973979D01*
X161024282Y-104952588D01*
X160899800Y-104940328D01*
X160880550Y-104943400D01*
X160721800Y-105102150D01*
X160721800Y-105293993D01*
X160700298Y-105334220D01*
X160663988Y-105453918D01*
X160651728Y-105578400D01*
X160651728Y-107578400D01*
X160663988Y-107702882D01*
X160700298Y-107822580D01*
X160721800Y-107862807D01*
X160721800Y-108054650D01*
X160859800Y-108192650D01*
X160859801Y-109418288D01*
X160790863Y-109487226D01*
X160677595Y-109656744D01*
X160599574Y-109845102D01*
X160559800Y-110045061D01*
X157626000Y-110045061D01*
X157586226Y-109845102D01*
X157508205Y-109656744D01*
X157394937Y-109487226D01*
X157329800Y-109422089D01*
X157329800Y-108192650D01*
X157467800Y-108054650D01*
X157467800Y-107862807D01*
X157489302Y-107822580D01*
X157525612Y-107702882D01*
X157537872Y-107578400D01*
X157537872Y-105578400D01*
X157651728Y-105578400D01*
X157651728Y-107578400D01*
X157663988Y-107702882D01*
X157700298Y-107822580D01*
X157721800Y-107862807D01*
X157721800Y-108054650D01*
X157880550Y-108213400D01*
X157899800Y-108216472D01*
X158024282Y-108204212D01*
X158094800Y-108182821D01*
X158165318Y-108204212D01*
X158289800Y-108216472D01*
X158899800Y-108216472D01*
X159024282Y-108204212D01*
X159094800Y-108182821D01*
X159165318Y-108204212D01*
X159289800Y-108216472D01*
X159899800Y-108216472D01*
X160024282Y-108204212D01*
X160094800Y-108182821D01*
X160165318Y-108204212D01*
X160289800Y-108216472D01*
X160309050Y-108213400D01*
X160467800Y-108054650D01*
X160467800Y-107862807D01*
X160489302Y-107822580D01*
X160525612Y-107702882D01*
X160537872Y-107578400D01*
X160537872Y-105578400D01*
X160525612Y-105453918D01*
X160489302Y-105334220D01*
X160467800Y-105293993D01*
X160467800Y-105102150D01*
X160309050Y-104943400D01*
X160289800Y-104940328D01*
X160165318Y-104952588D01*
X160094800Y-104973979D01*
X160024282Y-104952588D01*
X159899800Y-104940328D01*
X159289800Y-104940328D01*
X159165318Y-104952588D01*
X159094800Y-104973979D01*
X159024282Y-104952588D01*
X158899800Y-104940328D01*
X158289800Y-104940328D01*
X158165318Y-104952588D01*
X158094800Y-104973979D01*
X158024282Y-104952588D01*
X157899800Y-104940328D01*
X157880550Y-104943400D01*
X157721800Y-105102150D01*
X157721800Y-105293993D01*
X157700298Y-105334220D01*
X157663988Y-105453918D01*
X157651728Y-105578400D01*
X157537872Y-105578400D01*
X157525612Y-105453918D01*
X157489302Y-105334220D01*
X157467800Y-105293993D01*
X157467800Y-105102150D01*
X157309050Y-104943400D01*
X157289800Y-104940328D01*
X157165318Y-104952588D01*
X157094800Y-104973979D01*
X157024282Y-104952588D01*
X156899800Y-104940328D01*
X156289800Y-104940328D01*
X156165318Y-104952588D01*
X156094800Y-104973979D01*
X156024282Y-104952588D01*
X155899800Y-104940328D01*
X155289800Y-104940328D01*
X155165318Y-104952588D01*
X155094800Y-104973979D01*
X155024282Y-104952588D01*
X154899800Y-104940328D01*
X154880550Y-104943400D01*
X154721800Y-105102150D01*
X154721800Y-105293993D01*
X154700298Y-105334220D01*
X154663988Y-105453918D01*
X154651728Y-105578400D01*
X154651728Y-107578400D01*
X154663988Y-107702882D01*
X154700298Y-107822580D01*
X154721800Y-107862807D01*
X154721800Y-108054650D01*
X154859801Y-108192651D01*
X154859801Y-108458688D01*
X154783763Y-108534726D01*
X154670495Y-108704244D01*
X154592474Y-108892602D01*
X154552700Y-109092561D01*
X153584072Y-109092561D01*
X153584072Y-107580900D01*
X153583826Y-107578400D01*
X153651728Y-107578400D01*
X153663988Y-107702882D01*
X153700298Y-107822580D01*
X153759263Y-107932894D01*
X153838615Y-108029585D01*
X153935306Y-108108937D01*
X154045620Y-108167902D01*
X154165318Y-108204212D01*
X154289800Y-108216472D01*
X154309050Y-108213400D01*
X154467800Y-108054650D01*
X154467800Y-106705400D01*
X153813550Y-106705400D01*
X153654800Y-106864150D01*
X153651728Y-107578400D01*
X153583826Y-107578400D01*
X153571812Y-107456418D01*
X153535502Y-107336720D01*
X153476537Y-107226406D01*
X153397185Y-107129715D01*
X153300494Y-107050363D01*
X153190180Y-106991398D01*
X153070482Y-106955088D01*
X152946000Y-106942828D01*
X150266000Y-106942828D01*
X150141518Y-106955088D01*
X150021820Y-106991398D01*
X149911506Y-107050363D01*
X149814815Y-107129715D01*
X149735463Y-107226406D01*
X149676498Y-107336720D01*
X149640188Y-107456418D01*
X149627928Y-107580900D01*
X149627928Y-111180900D01*
X149640188Y-111305382D01*
X149675060Y-111420341D01*
X132765400Y-111442053D01*
X132765400Y-105578400D01*
X153651728Y-105578400D01*
X153654800Y-106292650D01*
X153813550Y-106451400D01*
X154467800Y-106451400D01*
X154467800Y-105102150D01*
X154309050Y-104943400D01*
X154289800Y-104940328D01*
X154165318Y-104952588D01*
X154045620Y-104988898D01*
X153935306Y-105047863D01*
X153838615Y-105127215D01*
X153759263Y-105223906D01*
X153700298Y-105334220D01*
X153663988Y-105453918D01*
X153651728Y-105578400D01*
X132765400Y-105578400D01*
X132765400Y-102248600D01*
X146441528Y-102248600D01*
X146441528Y-103948600D01*
X146453788Y-104073082D01*
X146490098Y-104192780D01*
X146549063Y-104303094D01*
X146628415Y-104399785D01*
X146725106Y-104479137D01*
X146835420Y-104538102D01*
X146955118Y-104574412D01*
X147079600Y-104586672D01*
X148779600Y-104586672D01*
X148904082Y-104574412D01*
X149023780Y-104538102D01*
X149134094Y-104479137D01*
X149230785Y-104399785D01*
X149310137Y-104303094D01*
X149369102Y-104192780D01*
X149405412Y-104073082D01*
X149417672Y-103948600D01*
X149417672Y-103065600D01*
X152254228Y-103065600D01*
X152266488Y-103190082D01*
X152302798Y-103309780D01*
X152361763Y-103420094D01*
X152441115Y-103516785D01*
X152537806Y-103596137D01*
X152648120Y-103655102D01*
X152767818Y-103691412D01*
X152892300Y-103703672D01*
X153144050Y-103700600D01*
X153302800Y-103541850D01*
X153302800Y-102717600D01*
X152416050Y-102717600D01*
X152257300Y-102876350D01*
X152254228Y-103065600D01*
X149417672Y-103065600D01*
X149417672Y-102248600D01*
X149405412Y-102124118D01*
X149402829Y-102115600D01*
X152254228Y-102115600D01*
X152257300Y-102304850D01*
X152416050Y-102463600D01*
X153302800Y-102463600D01*
X153302800Y-101751150D01*
X153315500Y-101738450D01*
X153315500Y-100914200D01*
X152428750Y-100914200D01*
X152270000Y-101072950D01*
X152266928Y-101262200D01*
X152279188Y-101386682D01*
X152315498Y-101506380D01*
X152374463Y-101616694D01*
X152427371Y-101681162D01*
X152361763Y-101761106D01*
X152302798Y-101871420D01*
X152266488Y-101991118D01*
X152254228Y-102115600D01*
X149402829Y-102115600D01*
X149369102Y-102004420D01*
X149310137Y-101894106D01*
X149230785Y-101797415D01*
X149134094Y-101718063D01*
X149023780Y-101659098D01*
X148943134Y-101634634D01*
X149027188Y-101558869D01*
X149201241Y-101325520D01*
X149326425Y-101062699D01*
X149371076Y-100915490D01*
X149249755Y-100685600D01*
X148056600Y-100685600D01*
X148056600Y-100705600D01*
X147802600Y-100705600D01*
X147802600Y-100685600D01*
X146609445Y-100685600D01*
X146488124Y-100915490D01*
X146532775Y-101062699D01*
X146657959Y-101325520D01*
X146832012Y-101558869D01*
X146916066Y-101634634D01*
X146835420Y-101659098D01*
X146725106Y-101718063D01*
X146628415Y-101797415D01*
X146549063Y-101894106D01*
X146490098Y-102004420D01*
X146453788Y-102124118D01*
X146441528Y-102248600D01*
X132765400Y-102248600D01*
X132765400Y-100201710D01*
X146488124Y-100201710D01*
X146609445Y-100431600D01*
X147802600Y-100431600D01*
X147802600Y-99237786D01*
X148056600Y-99237786D01*
X148056600Y-100431600D01*
X149249755Y-100431600D01*
X149312766Y-100312200D01*
X152266928Y-100312200D01*
X152270000Y-100501450D01*
X152428750Y-100660200D01*
X153315500Y-100660200D01*
X153315500Y-99835950D01*
X153156750Y-99677200D01*
X152905000Y-99674128D01*
X152780518Y-99686388D01*
X152660820Y-99722698D01*
X152550506Y-99781663D01*
X152453815Y-99861015D01*
X152374463Y-99957706D01*
X152315498Y-100068020D01*
X152279188Y-100187718D01*
X152266928Y-100312200D01*
X149312766Y-100312200D01*
X149371076Y-100201710D01*
X149326425Y-100054501D01*
X149201241Y-99791680D01*
X149027188Y-99558331D01*
X148810955Y-99363422D01*
X148560852Y-99214443D01*
X148286491Y-99117119D01*
X148056600Y-99237786D01*
X147802600Y-99237786D01*
X147572709Y-99117119D01*
X147298348Y-99214443D01*
X147048245Y-99363422D01*
X146832012Y-99558331D01*
X146657959Y-99791680D01*
X146532775Y-100054501D01*
X146488124Y-100201710D01*
X132765400Y-100201710D01*
X132765400Y-96000200D01*
X146492328Y-96000200D01*
X146492328Y-97700200D01*
X146504588Y-97824682D01*
X146540898Y-97944380D01*
X146599863Y-98054694D01*
X146679215Y-98151385D01*
X146775906Y-98230737D01*
X146886220Y-98289702D01*
X147005918Y-98326012D01*
X147130400Y-98338272D01*
X148830400Y-98338272D01*
X148954882Y-98326012D01*
X149074580Y-98289702D01*
X149184894Y-98230737D01*
X149281585Y-98151385D01*
X149360937Y-98054694D01*
X149419902Y-97944380D01*
X149456212Y-97824682D01*
X149468472Y-97700200D01*
X149468472Y-97635600D01*
X149608699Y-97635600D01*
X149971599Y-97998501D01*
X149995398Y-98027500D01*
X150111123Y-98122473D01*
X150243152Y-98193045D01*
X150386413Y-98236502D01*
X150498066Y-98247499D01*
X150498076Y-98247499D01*
X150535399Y-98251175D01*
X150572722Y-98247499D01*
X156531870Y-98247499D01*
X156528559Y-98258414D01*
X156513403Y-98412300D01*
X156517201Y-98450863D01*
X156517200Y-99977200D01*
X156124886Y-99977200D01*
X156086623Y-99930577D01*
X155953942Y-99821688D01*
X155802567Y-99740777D01*
X155638316Y-99690952D01*
X155467500Y-99674128D01*
X154867500Y-99674128D01*
X154696684Y-99690952D01*
X154532433Y-99740777D01*
X154382394Y-99820974D01*
X154334494Y-99781663D01*
X154224180Y-99722698D01*
X154104482Y-99686388D01*
X153980000Y-99674128D01*
X153728250Y-99677200D01*
X153569500Y-99835950D01*
X153569500Y-100660200D01*
X153589500Y-100660200D01*
X153589500Y-100914200D01*
X153569500Y-100914200D01*
X153569500Y-101626650D01*
X153556800Y-101639350D01*
X153556800Y-102463600D01*
X153576800Y-102463600D01*
X153576800Y-102717600D01*
X153556800Y-102717600D01*
X153556800Y-103541850D01*
X153715550Y-103700600D01*
X153967300Y-103703672D01*
X154091782Y-103691412D01*
X154211480Y-103655102D01*
X154321794Y-103596137D01*
X154369694Y-103556826D01*
X154519733Y-103637023D01*
X154683984Y-103686848D01*
X154854800Y-103703672D01*
X155454800Y-103703672D01*
X155625616Y-103686848D01*
X155789867Y-103637023D01*
X155941242Y-103556112D01*
X156073923Y-103447223D01*
X156132703Y-103375600D01*
X157314447Y-103375600D01*
X157353000Y-103379397D01*
X157391553Y-103375600D01*
X157391561Y-103375600D01*
X157506887Y-103364241D01*
X157654860Y-103319354D01*
X157791233Y-103246462D01*
X157910764Y-103148364D01*
X157935347Y-103118410D01*
X158139357Y-102914400D01*
X158166139Y-102914400D01*
X158366098Y-102874626D01*
X158554456Y-102796605D01*
X158723974Y-102683337D01*
X158868137Y-102539174D01*
X158981405Y-102369656D01*
X159059426Y-102181298D01*
X159099200Y-101981339D01*
X159099200Y-101777461D01*
X159059426Y-101577502D01*
X158981405Y-101389144D01*
X158868137Y-101219626D01*
X158849200Y-101200689D01*
X158849200Y-99616071D01*
X159740600Y-99616071D01*
X159865082Y-99603811D01*
X159984780Y-99567501D01*
X160095094Y-99508536D01*
X160191785Y-99429184D01*
X160271137Y-99332493D01*
X160330102Y-99222179D01*
X160366412Y-99102481D01*
X160378672Y-98977999D01*
X160378672Y-98622399D01*
X160366412Y-98497917D01*
X160359521Y-98475200D01*
X160366412Y-98452482D01*
X160378672Y-98328000D01*
X160378672Y-97972400D01*
X160366412Y-97847918D01*
X160359520Y-97825199D01*
X160366412Y-97802481D01*
X160378672Y-97677999D01*
X160378672Y-97322399D01*
X160366412Y-97197917D01*
X160359521Y-97175200D01*
X160366412Y-97152482D01*
X160378672Y-97028000D01*
X160378672Y-96672400D01*
X160366412Y-96547918D01*
X160359520Y-96525200D01*
X160366412Y-96502481D01*
X160378672Y-96377999D01*
X160378672Y-96022399D01*
X160366412Y-95897917D01*
X160359521Y-95875200D01*
X160366412Y-95852482D01*
X160378672Y-95728000D01*
X160378672Y-95372400D01*
X160366412Y-95247918D01*
X160359520Y-95225200D01*
X160366412Y-95202481D01*
X160378672Y-95077999D01*
X160378672Y-94722399D01*
X160366412Y-94597917D01*
X160330102Y-94478219D01*
X160271137Y-94367905D01*
X160191785Y-94271214D01*
X160095094Y-94191862D01*
X159984780Y-94132897D01*
X159865082Y-94096587D01*
X159740600Y-94084327D01*
X158381700Y-94084327D01*
X158257218Y-94096587D01*
X158155315Y-94127499D01*
X153050801Y-94127499D01*
X150569200Y-91645899D01*
X150569200Y-91096325D01*
X150572876Y-91059000D01*
X150569200Y-91021675D01*
X150569200Y-91021667D01*
X150558203Y-90910014D01*
X150514746Y-90766753D01*
X150444174Y-90634724D01*
X150349201Y-90518999D01*
X150320203Y-90495201D01*
X149421610Y-89596608D01*
X149465400Y-89376460D01*
X149465400Y-89083940D01*
X149408332Y-88797042D01*
X149296390Y-88526789D01*
X149133875Y-88283568D01*
X148927032Y-88076725D01*
X148683811Y-87914210D01*
X148413558Y-87802268D01*
X148126660Y-87745200D01*
X147834140Y-87745200D01*
X147547242Y-87802268D01*
X147276989Y-87914210D01*
X147033768Y-88076725D01*
X146826925Y-88283568D01*
X146664410Y-88526789D01*
X146552468Y-88797042D01*
X146495400Y-89083940D01*
X146495400Y-89376460D01*
X146552468Y-89663358D01*
X146664410Y-89933611D01*
X146826925Y-90176832D01*
X147033768Y-90383675D01*
X147208160Y-90500200D01*
X147033768Y-90616725D01*
X146826925Y-90823568D01*
X146664410Y-91066789D01*
X146552468Y-91337042D01*
X146495400Y-91623940D01*
X146495400Y-91916460D01*
X146552468Y-92203358D01*
X146664410Y-92473611D01*
X146826925Y-92716832D01*
X147033768Y-92923675D01*
X147208160Y-93040200D01*
X147033768Y-93156725D01*
X146826925Y-93363568D01*
X146664410Y-93606789D01*
X146552468Y-93877042D01*
X146495400Y-94163940D01*
X146495400Y-94456460D01*
X146552468Y-94743358D01*
X146664410Y-95013611D01*
X146826925Y-95256832D01*
X146958780Y-95388687D01*
X146886220Y-95410698D01*
X146775906Y-95469663D01*
X146679215Y-95549015D01*
X146599863Y-95645706D01*
X146540898Y-95756020D01*
X146504588Y-95875718D01*
X146492328Y-96000200D01*
X132765400Y-96000200D01*
X132765400Y-83959700D01*
X134731228Y-83959700D01*
X134743488Y-84084182D01*
X134779798Y-84203880D01*
X134838763Y-84314194D01*
X134918115Y-84410885D01*
X135014806Y-84490237D01*
X135125120Y-84549202D01*
X135244818Y-84585512D01*
X135369300Y-84597772D01*
X136290050Y-84594700D01*
X136448800Y-84435950D01*
X136448800Y-81546700D01*
X136702800Y-81546700D01*
X136702800Y-84435950D01*
X136861550Y-84594700D01*
X137782300Y-84597772D01*
X137906782Y-84585512D01*
X138026480Y-84549202D01*
X138136794Y-84490237D01*
X138233485Y-84410885D01*
X138312837Y-84314194D01*
X138371802Y-84203880D01*
X138408112Y-84084182D01*
X138420372Y-83959700D01*
X138417300Y-81705450D01*
X138258550Y-81546700D01*
X136702800Y-81546700D01*
X136448800Y-81546700D01*
X134893050Y-81546700D01*
X134734300Y-81705450D01*
X134731228Y-83959700D01*
X132765400Y-83959700D01*
X132765400Y-79158983D01*
X134731610Y-79159824D01*
G37*
%TD.AperFunction*%
%TD*%
M02*
