M48
; DRILL file {KiCad 5.1.10-88a1d61d58~88~ubuntu18.04.1} date Mon Jul 26 17:25:31 2021
; FORMAT={-:-/ absolute / inch / decimal}
; #@! TF.CreationDate,2021-07-26T17:25:31+07:00
; #@! TF.GenerationSoftware,Kicad,Pcbnew,5.1.10-88a1d61d58~88~ubuntu18.04.1
FMAT,2
INCH
T1C0.0157
T2C0.0394
%
G90
G05
T1
X5.55Y-3.2075
X5.55Y-3.2435
X6.0965Y-3.206
X6.0965Y-3.2405
X6.1255Y-4.299
X6.165Y-4.3365
X6.193Y-3.968
X6.223Y-4.011
X6.362Y-4.3365
X6.4015Y-4.299
X6.489Y-4.0125
X6.647Y-3.2035
X6.647Y-3.238
X6.7165Y-3.968
X7.2Y-3.2045
X7.2Y-3.24
T2
X5.824Y-3.959
X5.824Y-4.059
X5.826Y-3.513
X5.826Y-3.613
X5.826Y-3.713
X5.826Y-3.813
X6.9115Y-3.5235
X6.9115Y-3.6235
X6.9115Y-3.7235
X6.9115Y-3.8235
X6.913Y-3.9665
X6.913Y-4.0665
T0
M30
