%TF.GenerationSoftware,KiCad,Pcbnew,5.1.10-88a1d61d58~88~ubuntu18.04.1*%
%TF.CreationDate,2021-07-26T17:25:23+07:00*%
%TF.ProjectId,ADV728xM_EVAL_SMA-FFC_JETSON,41445637-3238-4784-9d5f-4556414c5f53,rev?*%
%TF.SameCoordinates,Original*%
%TF.FileFunction,Legend,Top*%
%TF.FilePolarity,Positive*%
%FSLAX46Y46*%
G04 Gerber Fmt 4.6, Leading zero omitted, Abs format (unit mm)*
G04 Created by KiCad (PCBNEW 5.1.10-88a1d61d58~88~ubuntu18.04.1) date 2021-07-26 17:25:23*
%MOMM*%
%LPD*%
G01*
G04 APERTURE LIST*
%ADD10C,0.120000*%
%ADD11C,0.127000*%
%ADD12C,0.200000*%
%ADD13C,0.100000*%
%ADD14C,0.150000*%
G04 APERTURE END LIST*
D10*
%TO.C,J6*%
X176882100Y-88166900D02*
X174222100Y-88166900D01*
X176882100Y-95846900D02*
X176882100Y-88166900D01*
X174222100Y-95846900D02*
X174222100Y-88166900D01*
X176882100Y-95846900D02*
X174222100Y-95846900D01*
X176882100Y-97116900D02*
X176882100Y-98446900D01*
X176882100Y-98446900D02*
X175552100Y-98446900D01*
D11*
%TO.C,J3*%
X166046500Y-83578700D02*
X167346500Y-83578700D01*
X170346500Y-83578700D02*
X171646500Y-83578700D01*
D12*
X168946500Y-84768900D02*
G75*
G03*
X168946500Y-84768900I-100000J0D01*
G01*
D11*
%TO.C,J4*%
X180092700Y-83578700D02*
X181392700Y-83578700D01*
X184392700Y-83578700D02*
X185692700Y-83578700D01*
D12*
X182992700Y-84768900D02*
G75*
G03*
X182992700Y-84768900I-100000J0D01*
G01*
D11*
%TO.C,J1*%
X138157300Y-83629500D02*
X139457300Y-83629500D01*
X142457300Y-83629500D02*
X143757300Y-83629500D01*
D12*
X141057300Y-84819700D02*
G75*
G03*
X141057300Y-84819700I-100000J0D01*
G01*
D11*
%TO.C,J2*%
X152076500Y-83578700D02*
X153376500Y-83578700D01*
X156376500Y-83578700D02*
X157676500Y-83578700D01*
D12*
X154976500Y-84768900D02*
G75*
G03*
X154976500Y-84768900I-100000J0D01*
G01*
D10*
%TO.C,C2*%
X154158733Y-101297200D02*
X154451267Y-101297200D01*
X154158733Y-100277200D02*
X154451267Y-100277200D01*
%TO.C,C1*%
X154146033Y-102080600D02*
X154438567Y-102080600D01*
X154146033Y-103100600D02*
X154438567Y-103100600D01*
%TO.C,J5*%
X149310400Y-98180200D02*
X147980400Y-98180200D01*
X149310400Y-96850200D02*
X149310400Y-98180200D01*
X149310400Y-95580200D02*
X146650400Y-95580200D01*
X146650400Y-95580200D02*
X146650400Y-87900200D01*
X149310400Y-95580200D02*
X149310400Y-87900200D01*
X149310400Y-87900200D02*
X146650400Y-87900200D01*
%TO.C,J8*%
X176920200Y-104619100D02*
X175590200Y-104619100D01*
X176920200Y-103289100D02*
X176920200Y-104619100D01*
X176920200Y-102019100D02*
X174260200Y-102019100D01*
X174260200Y-102019100D02*
X174260200Y-99419100D01*
X176920200Y-102019100D02*
X176920200Y-99419100D01*
X176920200Y-99419100D02*
X174260200Y-99419100D01*
%TO.C,J7*%
X149259600Y-99228600D02*
X146599600Y-99228600D01*
X149259600Y-101828600D02*
X149259600Y-99228600D01*
X146599600Y-101828600D02*
X146599600Y-99228600D01*
X149259600Y-101828600D02*
X146599600Y-101828600D01*
X149259600Y-103098600D02*
X149259600Y-104428600D01*
X149259600Y-104428600D02*
X147929600Y-104428600D01*
%TO.C,R1*%
X169378136Y-103185900D02*
X169832264Y-103185900D01*
X169378136Y-101715900D02*
X169832264Y-101715900D01*
%TO.C,U2*%
X164261800Y-94170500D02*
X159613600Y-94170500D01*
X159613600Y-94170500D02*
X159613600Y-94389659D01*
X159613600Y-99529900D02*
X164261800Y-99529900D01*
X164261800Y-99529900D02*
X164261800Y-99310741D01*
X164261800Y-94389661D02*
X164261800Y-94170500D01*
X159613600Y-99310739D02*
X159613600Y-99529900D01*
D13*
G36*
X157873700Y-96390701D02*
G01*
X157873700Y-96009701D01*
X158127700Y-96009701D01*
X158127700Y-96390701D01*
X157873700Y-96390701D01*
G37*
X157873700Y-96390701D02*
X157873700Y-96009701D01*
X158127700Y-96009701D01*
X158127700Y-96390701D01*
X157873700Y-96390701D01*
%TO.C,J6*%
D14*
X178482666Y-96721680D02*
X178482666Y-97435966D01*
X178435047Y-97578823D01*
X178339809Y-97674061D01*
X178196952Y-97721680D01*
X178101714Y-97721680D01*
X179387428Y-96721680D02*
X179196952Y-96721680D01*
X179101714Y-96769300D01*
X179054095Y-96816919D01*
X178958857Y-96959776D01*
X178911238Y-97150252D01*
X178911238Y-97531204D01*
X178958857Y-97626442D01*
X179006476Y-97674061D01*
X179101714Y-97721680D01*
X179292190Y-97721680D01*
X179387428Y-97674061D01*
X179435047Y-97626442D01*
X179482666Y-97531204D01*
X179482666Y-97293109D01*
X179435047Y-97197871D01*
X179387428Y-97150252D01*
X179292190Y-97102633D01*
X179101714Y-97102633D01*
X179006476Y-97150252D01*
X178958857Y-97197871D01*
X178911238Y-97293109D01*
%TO.C,J3*%
X164157066Y-85113880D02*
X164157066Y-85828166D01*
X164109447Y-85971023D01*
X164014209Y-86066261D01*
X163871352Y-86113880D01*
X163776114Y-86113880D01*
X164538019Y-85113880D02*
X165157066Y-85113880D01*
X164823733Y-85494833D01*
X164966590Y-85494833D01*
X165061828Y-85542452D01*
X165109447Y-85590071D01*
X165157066Y-85685309D01*
X165157066Y-85923404D01*
X165109447Y-86018642D01*
X165061828Y-86066261D01*
X164966590Y-86113880D01*
X164680876Y-86113880D01*
X164585638Y-86066261D01*
X164538019Y-86018642D01*
%TO.C,J4*%
X178114366Y-85164680D02*
X178114366Y-85878966D01*
X178066747Y-86021823D01*
X177971509Y-86117061D01*
X177828652Y-86164680D01*
X177733414Y-86164680D01*
X179019128Y-85498014D02*
X179019128Y-86164680D01*
X178781033Y-85117061D02*
X178542938Y-85831347D01*
X179161985Y-85831347D01*
%TO.C,J1*%
X136204366Y-85012280D02*
X136204366Y-85726566D01*
X136156747Y-85869423D01*
X136061509Y-85964661D01*
X135918652Y-86012280D01*
X135823414Y-86012280D01*
X137204366Y-86012280D02*
X136632938Y-86012280D01*
X136918652Y-86012280D02*
X136918652Y-85012280D01*
X136823414Y-85155138D01*
X136728176Y-85250376D01*
X136632938Y-85297995D01*
%TO.C,J2*%
X150123566Y-84885280D02*
X150123566Y-85599566D01*
X150075947Y-85742423D01*
X149980709Y-85837661D01*
X149837852Y-85885280D01*
X149742614Y-85885280D01*
X150552138Y-84980519D02*
X150599757Y-84932900D01*
X150694995Y-84885280D01*
X150933090Y-84885280D01*
X151028328Y-84932900D01*
X151075947Y-84980519D01*
X151123566Y-85075757D01*
X151123566Y-85170995D01*
X151075947Y-85313852D01*
X150504519Y-85885280D01*
X151123566Y-85885280D01*
%TO.C,C2*%
X151166533Y-101118942D02*
X151118914Y-101166561D01*
X150976057Y-101214180D01*
X150880819Y-101214180D01*
X150737961Y-101166561D01*
X150642723Y-101071323D01*
X150595104Y-100976085D01*
X150547485Y-100785609D01*
X150547485Y-100642752D01*
X150595104Y-100452276D01*
X150642723Y-100357038D01*
X150737961Y-100261800D01*
X150880819Y-100214180D01*
X150976057Y-100214180D01*
X151118914Y-100261800D01*
X151166533Y-100309419D01*
X151547485Y-100309419D02*
X151595104Y-100261800D01*
X151690342Y-100214180D01*
X151928438Y-100214180D01*
X152023676Y-100261800D01*
X152071295Y-100309419D01*
X152118914Y-100404657D01*
X152118914Y-100499895D01*
X152071295Y-100642752D01*
X151499866Y-101214180D01*
X152118914Y-101214180D01*
%TO.C,C1*%
X151103033Y-102935042D02*
X151055414Y-102982661D01*
X150912557Y-103030280D01*
X150817319Y-103030280D01*
X150674461Y-102982661D01*
X150579223Y-102887423D01*
X150531604Y-102792185D01*
X150483985Y-102601709D01*
X150483985Y-102458852D01*
X150531604Y-102268376D01*
X150579223Y-102173138D01*
X150674461Y-102077900D01*
X150817319Y-102030280D01*
X150912557Y-102030280D01*
X151055414Y-102077900D01*
X151103033Y-102125519D01*
X152055414Y-103030280D02*
X151483985Y-103030280D01*
X151769700Y-103030280D02*
X151769700Y-102030280D01*
X151674461Y-102173138D01*
X151579223Y-102268376D01*
X151483985Y-102315995D01*
%TO.C,J5*%
X144776866Y-96315280D02*
X144776866Y-97029566D01*
X144729247Y-97172423D01*
X144634009Y-97267661D01*
X144491152Y-97315280D01*
X144395914Y-97315280D01*
X145729247Y-96315280D02*
X145253057Y-96315280D01*
X145205438Y-96791471D01*
X145253057Y-96743852D01*
X145348295Y-96696233D01*
X145586390Y-96696233D01*
X145681628Y-96743852D01*
X145729247Y-96791471D01*
X145776866Y-96886709D01*
X145776866Y-97124804D01*
X145729247Y-97220042D01*
X145681628Y-97267661D01*
X145586390Y-97315280D01*
X145348295Y-97315280D01*
X145253057Y-97267661D01*
X145205438Y-97220042D01*
%TO.C,J8*%
X178431866Y-102741480D02*
X178431866Y-103455766D01*
X178384247Y-103598623D01*
X178289009Y-103693861D01*
X178146152Y-103741480D01*
X178050914Y-103741480D01*
X179050914Y-103170052D02*
X178955676Y-103122433D01*
X178908057Y-103074814D01*
X178860438Y-102979576D01*
X178860438Y-102931957D01*
X178908057Y-102836719D01*
X178955676Y-102789100D01*
X179050914Y-102741480D01*
X179241390Y-102741480D01*
X179336628Y-102789100D01*
X179384247Y-102836719D01*
X179431866Y-102931957D01*
X179431866Y-102979576D01*
X179384247Y-103074814D01*
X179336628Y-103122433D01*
X179241390Y-103170052D01*
X179050914Y-103170052D01*
X178955676Y-103217671D01*
X178908057Y-103265290D01*
X178860438Y-103360528D01*
X178860438Y-103551004D01*
X178908057Y-103646242D01*
X178955676Y-103693861D01*
X179050914Y-103741480D01*
X179241390Y-103741480D01*
X179336628Y-103693861D01*
X179384247Y-103646242D01*
X179431866Y-103551004D01*
X179431866Y-103360528D01*
X179384247Y-103265290D01*
X179336628Y-103217671D01*
X179241390Y-103170052D01*
%TO.C,J7*%
X144675266Y-102462080D02*
X144675266Y-103176366D01*
X144627647Y-103319223D01*
X144532409Y-103414461D01*
X144389552Y-103462080D01*
X144294314Y-103462080D01*
X145056219Y-102462080D02*
X145722885Y-102462080D01*
X145294314Y-103462080D01*
%TO.C,R1*%
X170445133Y-105176580D02*
X170111800Y-104700390D01*
X169873704Y-105176580D02*
X169873704Y-104176580D01*
X170254657Y-104176580D01*
X170349895Y-104224200D01*
X170397514Y-104271819D01*
X170445133Y-104367057D01*
X170445133Y-104509914D01*
X170397514Y-104605152D01*
X170349895Y-104652771D01*
X170254657Y-104700390D01*
X169873704Y-104700390D01*
X171397514Y-105176580D02*
X170826085Y-105176580D01*
X171111800Y-105176580D02*
X171111800Y-104176580D01*
X171016561Y-104319438D01*
X170921323Y-104414676D01*
X170826085Y-104462295D01*
%TO.C,U1*%
X147496641Y-109055279D02*
X147496641Y-109866135D01*
X147544338Y-109961530D01*
X147592036Y-110009228D01*
X147687430Y-110056925D01*
X147878220Y-110056925D01*
X147973615Y-110009228D01*
X148021312Y-109961530D01*
X148069010Y-109866135D01*
X148069010Y-109055279D01*
X149070656Y-110056925D02*
X148498287Y-110056925D01*
X148784471Y-110056925D02*
X148784471Y-109055279D01*
X148689076Y-109198371D01*
X148593682Y-109293766D01*
X148498287Y-109341464D01*
%TO.C,U2*%
X160350295Y-99972880D02*
X160350295Y-100782404D01*
X160397914Y-100877642D01*
X160445533Y-100925261D01*
X160540771Y-100972880D01*
X160731247Y-100972880D01*
X160826485Y-100925261D01*
X160874104Y-100877642D01*
X160921723Y-100782404D01*
X160921723Y-99972880D01*
X161350295Y-100068119D02*
X161397914Y-100020500D01*
X161493152Y-99972880D01*
X161731247Y-99972880D01*
X161826485Y-100020500D01*
X161874104Y-100068119D01*
X161921723Y-100163357D01*
X161921723Y-100258595D01*
X161874104Y-100401452D01*
X161302676Y-100972880D01*
X161921723Y-100972880D01*
X156363138Y-93378280D02*
X156363138Y-92378280D01*
X156934566Y-93378280D01*
X156934566Y-92378280D01*
X157886947Y-93378280D02*
X157410757Y-93378280D01*
X157410757Y-92378280D01*
X158172661Y-93330661D02*
X158315519Y-93378280D01*
X158553614Y-93378280D01*
X158648852Y-93330661D01*
X158696471Y-93283042D01*
X158744090Y-93187804D01*
X158744090Y-93092566D01*
X158696471Y-92997328D01*
X158648852Y-92949709D01*
X158553614Y-92902090D01*
X158363138Y-92854471D01*
X158267900Y-92806852D01*
X158220280Y-92759233D01*
X158172661Y-92663995D01*
X158172661Y-92568757D01*
X158220280Y-92473519D01*
X158267900Y-92425900D01*
X158363138Y-92378280D01*
X158601233Y-92378280D01*
X158744090Y-92425900D01*
X159077423Y-92378280D02*
X159744090Y-93378280D01*
X159744090Y-92378280D02*
X159077423Y-93378280D01*
X160601233Y-92378280D02*
X160125042Y-92378280D01*
X160077423Y-92854471D01*
X160125042Y-92806852D01*
X160220280Y-92759233D01*
X160458376Y-92759233D01*
X160553614Y-92806852D01*
X160601233Y-92854471D01*
X160648852Y-92949709D01*
X160648852Y-93187804D01*
X160601233Y-93283042D01*
X160553614Y-93330661D01*
X160458376Y-93378280D01*
X160220280Y-93378280D01*
X160125042Y-93330661D01*
X160077423Y-93283042D01*
X161267900Y-92378280D02*
X161363138Y-92378280D01*
X161458376Y-92425900D01*
X161505995Y-92473519D01*
X161553614Y-92568757D01*
X161601233Y-92759233D01*
X161601233Y-92997328D01*
X161553614Y-93187804D01*
X161505995Y-93283042D01*
X161458376Y-93330661D01*
X161363138Y-93378280D01*
X161267900Y-93378280D01*
X161172661Y-93330661D01*
X161125042Y-93283042D01*
X161077423Y-93187804D01*
X161029804Y-92997328D01*
X161029804Y-92759233D01*
X161077423Y-92568757D01*
X161125042Y-92473519D01*
X161172661Y-92425900D01*
X161267900Y-92378280D01*
X162553614Y-93378280D02*
X161982185Y-93378280D01*
X162267900Y-93378280D02*
X162267900Y-92378280D01*
X162172661Y-92521138D01*
X162077423Y-92616376D01*
X161982185Y-92663995D01*
X163410757Y-92711614D02*
X163410757Y-93378280D01*
X163172661Y-92330661D02*
X162934566Y-93044947D01*
X163553614Y-93044947D01*
X163934566Y-93378280D02*
X163934566Y-92378280D01*
X164172661Y-92378280D01*
X164315519Y-92425900D01*
X164410757Y-92521138D01*
X164458376Y-92616376D01*
X164505995Y-92806852D01*
X164505995Y-92949709D01*
X164458376Y-93140185D01*
X164410757Y-93235423D01*
X164315519Y-93330661D01*
X164172661Y-93378280D01*
X163934566Y-93378280D01*
X164791709Y-92378280D02*
X165363138Y-92378280D01*
X165077423Y-93378280D02*
X165077423Y-92378280D01*
X166267900Y-93378280D02*
X165934566Y-92902090D01*
X165696471Y-93378280D02*
X165696471Y-92378280D01*
X166077423Y-92378280D01*
X166172661Y-92425900D01*
X166220280Y-92473519D01*
X166267900Y-92568757D01*
X166267900Y-92711614D01*
X166220280Y-92806852D01*
X166172661Y-92854471D01*
X166077423Y-92902090D01*
X165696471Y-92902090D01*
X166648852Y-92473519D02*
X166696471Y-92425900D01*
X166791709Y-92378280D01*
X167029804Y-92378280D01*
X167125042Y-92425900D01*
X167172661Y-92473519D01*
X167220280Y-92568757D01*
X167220280Y-92663995D01*
X167172661Y-92806852D01*
X166601233Y-93378280D01*
X167220280Y-93378280D01*
X168172661Y-92425900D02*
X168077423Y-92378280D01*
X167934566Y-92378280D01*
X167791709Y-92425900D01*
X167696471Y-92521138D01*
X167648852Y-92616376D01*
X167601233Y-92806852D01*
X167601233Y-92949709D01*
X167648852Y-93140185D01*
X167696471Y-93235423D01*
X167791709Y-93330661D01*
X167934566Y-93378280D01*
X168029804Y-93378280D01*
X168172661Y-93330661D01*
X168220280Y-93283042D01*
X168220280Y-92949709D01*
X168029804Y-92949709D01*
X163982400Y-99845880D02*
X163982400Y-100083976D01*
X163744304Y-99988738D02*
X163982400Y-100083976D01*
X164220495Y-99988738D01*
X163839542Y-100274452D02*
X163982400Y-100083976D01*
X164125257Y-100274452D01*
X163982400Y-99820480D02*
X163982400Y-100058576D01*
X163744304Y-99963338D02*
X163982400Y-100058576D01*
X164220495Y-99963338D01*
X163839542Y-100249052D02*
X163982400Y-100058576D01*
X164125257Y-100249052D01*
%TD*%
M02*
