%TF.GenerationSoftware,KiCad,Pcbnew,5.1.10-88a1d61d58~88~ubuntu18.04.1*%
%TF.CreationDate,2021-07-26T17:25:23+07:00*%
%TF.ProjectId,ADV728xM_EVAL_SMA-FFC_JETSON,41445637-3238-4784-9d5f-4556414c5f53,rev?*%
%TF.SameCoordinates,Original*%
%TF.FileFunction,Soldermask,Top*%
%TF.FilePolarity,Negative*%
%FSLAX46Y46*%
G04 Gerber Fmt 4.6, Leading zero omitted, Abs format (unit mm)*
G04 Created by KiCad (PCBNEW 5.1.10-88a1d61d58~88~ubuntu18.04.1) date 2021-07-26 17:25:23*
%MOMM*%
%LPD*%
G01*
G04 APERTURE LIST*
%ADD10O,1.700000X1.700000*%
%ADD11R,1.700000X1.700000*%
%ADD12R,2.286000X5.080000*%
%ADD13R,2.413000X5.080000*%
%ADD14R,0.610000X2.000000*%
%ADD15R,2.680000X3.600000*%
%ADD16R,1.358900X0.355600*%
G04 APERTURE END LIST*
D10*
%TO.C,J6*%
X175552100Y-89496900D03*
X175552100Y-92036900D03*
X175552100Y-94576900D03*
D11*
X175552100Y-97116900D03*
%TD*%
D12*
%TO.C,J3*%
X168846500Y-81368900D03*
D13*
X173228000Y-81368900D03*
X164465000Y-81368900D03*
%TD*%
D12*
%TO.C,J4*%
X182892700Y-81368900D03*
D13*
X187274200Y-81368900D03*
X178511200Y-81368900D03*
%TD*%
D12*
%TO.C,J1*%
X140957300Y-81419700D03*
D13*
X145338800Y-81419700D03*
X136575800Y-81419700D03*
%TD*%
D12*
%TO.C,J2*%
X154876500Y-81368900D03*
D13*
X159258000Y-81368900D03*
X150495000Y-81368900D03*
%TD*%
%TO.C,C2*%
G36*
G01*
X152905000Y-101024700D02*
X152905000Y-100549700D01*
G75*
G02*
X153142500Y-100312200I237500J0D01*
G01*
X153742500Y-100312200D01*
G75*
G02*
X153980000Y-100549700I0J-237500D01*
G01*
X153980000Y-101024700D01*
G75*
G02*
X153742500Y-101262200I-237500J0D01*
G01*
X153142500Y-101262200D01*
G75*
G02*
X152905000Y-101024700I0J237500D01*
G01*
G37*
G36*
G01*
X154630000Y-101024700D02*
X154630000Y-100549700D01*
G75*
G02*
X154867500Y-100312200I237500J0D01*
G01*
X155467500Y-100312200D01*
G75*
G02*
X155705000Y-100549700I0J-237500D01*
G01*
X155705000Y-101024700D01*
G75*
G02*
X155467500Y-101262200I-237500J0D01*
G01*
X154867500Y-101262200D01*
G75*
G02*
X154630000Y-101024700I0J237500D01*
G01*
G37*
%TD*%
%TO.C,C1*%
G36*
G01*
X154617300Y-102828100D02*
X154617300Y-102353100D01*
G75*
G02*
X154854800Y-102115600I237500J0D01*
G01*
X155454800Y-102115600D01*
G75*
G02*
X155692300Y-102353100I0J-237500D01*
G01*
X155692300Y-102828100D01*
G75*
G02*
X155454800Y-103065600I-237500J0D01*
G01*
X154854800Y-103065600D01*
G75*
G02*
X154617300Y-102828100I0J237500D01*
G01*
G37*
G36*
G01*
X152892300Y-102828100D02*
X152892300Y-102353100D01*
G75*
G02*
X153129800Y-102115600I237500J0D01*
G01*
X153729800Y-102115600D01*
G75*
G02*
X153967300Y-102353100I0J-237500D01*
G01*
X153967300Y-102828100D01*
G75*
G02*
X153729800Y-103065600I-237500J0D01*
G01*
X153129800Y-103065600D01*
G75*
G02*
X152892300Y-102828100I0J237500D01*
G01*
G37*
%TD*%
D11*
%TO.C,J5*%
X147980400Y-96850200D03*
D10*
X147980400Y-94310200D03*
X147980400Y-91770200D03*
X147980400Y-89230200D03*
%TD*%
D11*
%TO.C,J8*%
X175590200Y-103289100D03*
D10*
X175590200Y-100749100D03*
%TD*%
%TO.C,J7*%
X147929600Y-100558600D03*
D11*
X147929600Y-103098600D03*
%TD*%
%TO.C,R1*%
G36*
G01*
X168005200Y-102900901D02*
X168005200Y-102000899D01*
G75*
G02*
X168255199Y-101750900I249999J0D01*
G01*
X168955201Y-101750900D01*
G75*
G02*
X169205200Y-102000899I0J-249999D01*
G01*
X169205200Y-102900901D01*
G75*
G02*
X168955201Y-103150900I-249999J0D01*
G01*
X168255199Y-103150900D01*
G75*
G02*
X168005200Y-102900901I0J249999D01*
G01*
G37*
G36*
G01*
X170005200Y-102900901D02*
X170005200Y-102000899D01*
G75*
G02*
X170255199Y-101750900I249999J0D01*
G01*
X170955201Y-101750900D01*
G75*
G02*
X171205200Y-102000899I0J-249999D01*
G01*
X171205200Y-102900901D01*
G75*
G02*
X170955201Y-103150900I-249999J0D01*
G01*
X170255199Y-103150900D01*
G75*
G02*
X170005200Y-102900901I0J249999D01*
G01*
G37*
%TD*%
D14*
%TO.C,U1*%
X154594800Y-106578400D03*
X155594800Y-106578400D03*
X156594800Y-106578400D03*
X157594800Y-106578400D03*
X158594800Y-106578400D03*
X159594800Y-106578400D03*
X160594800Y-106578400D03*
X161594800Y-106578400D03*
X162594800Y-106578400D03*
X163594800Y-106578400D03*
X164594800Y-106578400D03*
X165594800Y-106578400D03*
X166594800Y-106578400D03*
X167594800Y-106578400D03*
X168594800Y-106578400D03*
D15*
X151606000Y-109380900D03*
X171583900Y-109380400D03*
%TD*%
D16*
%TO.C,U2*%
X159061150Y-98800199D03*
X159061150Y-98150200D03*
X159061150Y-97500199D03*
X159061150Y-96850200D03*
X159061150Y-96200199D03*
X159061150Y-95550200D03*
X159061150Y-94900199D03*
X164814250Y-94900201D03*
X164814250Y-95550200D03*
X164814250Y-96200201D03*
X164814250Y-96850200D03*
X164814250Y-97500199D03*
X164814250Y-98150200D03*
X164814250Y-98800201D03*
%TD*%
M02*
